<?xml version="1.0" encoding="UTF-8"?>
<svg version="1.1" xmlns="http://www.w3.org/2000/svg" width="697" height="587">
<path d="M0 0 C10.29508878 9.99080044 16.16596414 23.0629544 16.65308011 37.41965473 C16.6886031 40.72104938 16.69089131 44.02103689 16.68275452 47.32261658 C16.68360894 48.59041523 16.68446337 49.85821388 16.68534368 51.16443068 C16.68757382 54.67171304 16.68358766 58.17896472 16.67856562 61.68624318 C16.67424002 65.4727949 16.67570904 69.25934494 16.6764679 73.04589844 C16.67699179 79.60248664 16.673859 86.15906487 16.66823006 92.71565056 C16.66009689 102.19532791 16.65749797 111.67500045 16.65624207 121.15468092 C16.65405441 136.53549639 16.64740206 151.91630655 16.63793945 167.29711914 C16.62875795 182.236572 16.62168072 197.17602341 16.61743164 212.11547852 C16.61716892 213.03662108 16.61690619 213.95776365 16.61663551 214.90681963 C16.61533045 219.5280032 16.61406675 224.14918678 16.61282361 228.77037036 C16.60245989 267.09691829 16.58402637 305.4234564 16.5625 343.75 C40.3225 343.42 64.0825 343.09 88.5625 342.75 C84.9325 338.79 81.3025 334.83 77.5625 330.75 C75.42586154 327.9940818 73.39385713 325.30583251 71.4375 322.4375 C70.93943848 321.7151416 70.44137695 320.9927832 69.92822266 320.24853516 C68.45638603 318.09295794 67.00538991 315.92503426 65.5625 313.75 C65.15257812 313.13817871 64.74265625 312.52635742 64.3203125 311.89599609 C33.72808926 265.66118891 26.4630316 205.85419396 37.3125 152.31640625 C49.39985261 96.70865906 81.66821856 50.67893535 129.04296875 19.4296875 C173.71419791 -8.87133967 225.54819683 -17.9089175 277.5625 -12.25 C278.34077148 -12.16991699 279.11904297 -12.08983398 279.92089844 -12.00732422 C282.05287627 -11.78720989 284.18271372 -11.55280205 286.3125 -11.3125 C288.09914063 -11.11333984 288.09914063 -11.11333984 289.921875 -10.91015625 C293.50270497 -10.26084266 296.70979341 -9.29004302 300.13378906 -8.09106445 C302.67751334 -7.21017079 305.23802692 -6.41513518 307.8125 -5.62890625 C336.42837519 3.31262048 362.11362475 17.14937445 385.5625 35.75 C386.15095703 36.20922852 386.73941406 36.66845703 387.34570312 37.14160156 C388.79070883 38.29676109 390.18237821 39.51805079 391.5625 40.75 C391.5625 41.41 391.5625 42.07 391.5625 42.75 C392.38041016 43.08257812 392.38041016 43.08257812 393.21484375 43.421875 C396.30614737 45.17069901 398.64745361 47.49509518 401.125 50 C401.91173096 50.79301514 401.91173096 50.79301514 402.71435547 51.60205078 C408.52726516 57.5790979 413.5972569 64.06418264 418.5625 70.75 C418.99304688 71.32508301 419.42359375 71.90016602 419.8671875 72.49267578 C456.9224482 122.22251997 473.11585312 186.45297947 464.36499023 247.87133789 C458.84466778 283.82357249 446.80460749 320.69236381 423.875 349.5 C421.37589904 352.33662012 421.37589904 352.33662012 421.58406067 354.60090637 C423.03957366 357.79786871 425.42052456 359.97374165 427.9050293 362.38549805 C428.46124466 362.93733261 429.01746002 363.48916718 429.5905304 364.057724 C430.79911398 365.25489585 432.01115076 366.44858933 433.22620201 367.6391964 C435.15474456 369.52938608 437.07370545 371.42884381 438.99043274 373.33100891 C443.75711532 378.05760326 448.53974413 382.76795664 453.32220459 387.47857666 C457.35695274 391.45385858 461.3853236 395.43540281 465.40561867 399.42530251 C467.2860943 401.28648544 469.17545421 403.13830814 471.06535339 404.98991394 C486.88861768 420.60684742 486.88861768 420.60684742 487.875 431.0625 C487.38825206 436.80612567 485.18753463 440.24387034 481 444.125 C476.46849673 447.14600218 471.92110193 447.0815583 466.64453125 447.32421875 C465.72460892 447.3665715 464.80468658 447.40892426 463.85688782 447.45256042 C452.54775126 447.90926555 441.24569555 447.80280642 429.93139648 447.61791992 C426.23744228 447.56231096 422.54386249 447.53395163 418.84960938 447.50585938 C403.17060791 447.30982666 388.34738468 446.6327739 374.25 439 C373.58959717 438.65420898 372.92919434 438.30841797 372.2487793 437.95214844 C353.20813052 427.73103365 338.44932108 410.78052532 323.35546875 395.640625 C321.53580868 393.81909569 319.71592462 391.99779012 317.89582825 390.17669678 C313.63031726 385.90778527 309.36703574 381.63665948 305.10487968 377.36439872 C300.24332891 372.49157853 295.37885765 367.62167812 290.51416814 362.75199175 C280.52708115 352.75451844 270.54357205 342.75347822 260.5625 332.75 C260.8925 331.76 261.2225 330.77 261.5625 329.75 C262.16835938 329.7075415 262.77421875 329.66508301 263.3984375 329.62133789 C269.68658263 329.09833351 275.51074129 327.95190138 281.5625 326.1875 C282.46895264 325.92356445 283.37540527 325.65962891 284.30932617 325.38769531 C302.38315063 319.92751609 320.32729544 311.4662423 333.9609375 298.1484375 C335.5625 296.75 335.5625 296.75 337.5625 296.75 C337.8925 295.76 338.2225 294.77 338.5625 293.75 C339.2225 293.75 339.8825 293.75 340.5625 293.75 C340.82933594 293.16734375 341.09617187 292.5846875 341.37109375 291.984375 C342.58867569 289.70090985 343.9561019 287.97269279 345.625 286 C366.01101796 259.97709973 373.26168596 225.48897118 369.68530273 193.09033203 C367.6227268 177.23068444 362.61093703 162.05607424 355.5625 147.75 C354.83933594 146.26306641 354.83933594 146.26306641 354.1015625 144.74609375 C340.60225011 118.53057824 316.65539997 98.39016386 288.77734375 89.03515625 C266.56461761 82.08228652 241.15593859 80.5164324 218.5625 86.75 C217.74378418 86.97574707 216.92506836 87.20149414 216.08154297 87.43408203 C198.64603934 92.4207068 184.18370062 99.70299913 170.5625 111.75 C169.83160156 112.32621094 169.10070312 112.90242188 168.34765625 113.49609375 C150.43728017 128.03815317 139.70907642 149.98668112 133.5625 171.75 C133.06943359 173.46896484 133.06943359 173.46896484 132.56640625 175.22265625 C124.48295295 207.67249987 131.90818131 241.56706323 148.0625 270.1875 C153.29937299 278.7849967 159.19827339 286.63958209 166.09375 293.97265625 C167.5625 295.75 167.5625 295.75 167.5625 297.75 C168.2225 297.75 168.8825 297.75 169.5625 297.75 C170.7890625 299.03515625 170.7890625 299.03515625 172.1875 300.8125 C174.94102213 304.12729163 177.88287885 306.8813394 181.16015625 309.66796875 C184.77959486 312.80481555 188.26744369 316.08087663 191.7746582 319.34204102 C194.73542983 322.08748379 197.72613452 324.77010754 200.8125 327.375 C219.95667136 344.1161373 230.64040272 365.77936028 232.84375 390.96484375 C233.31397967 405.87504275 228.54612669 418.79957942 218.5625 429.75 C206.88915245 440.57713834 191.79335067 445.86832866 175.96362305 445.87939453 C175.32258731 445.88111569 174.68155157 445.88283686 174.02109051 445.88461018 C171.8721078 445.88895913 169.72320263 445.88597696 167.57421875 445.8828125 C166.00851414 445.88396103 164.44280974 445.88544093 162.87710571 445.88722229 C158.57376805 445.89027545 154.27046888 445.88591738 149.96713638 445.87917709 C147.24586265 445.87499364 144.52458975 445.87203062 141.80331421 445.86929321 C128.54638631 445.85433954 115.28959638 445.81375181 102.03276062 445.76314545 C98.45466268 445.74959151 94.87656255 445.73675976 91.29846191 445.72393799 C76.01533702 445.66755953 60.73250088 445.58794519 45.44961548 445.48553467 C40.41786861 445.45221804 35.38615144 445.42539075 30.3543396 445.40411377 C24.35794643 445.37823486 18.36181276 445.33784712 12.36558151 445.28693962 C10.15350835 445.27042039 7.94139283 445.25870981 5.72926712 445.25235176 C-22.27165922 445.16344828 -48.13803092 440.32863705 -69.0703125 420.27734375 C-85.56027383 402.67172497 -94.57509904 382.93605429 -94.59571838 358.59321594 C-94.60312535 356.739751 -94.60312535 356.739751 -94.61068195 354.84884232 C-94.62337417 351.42563463 -94.63167179 348.00246746 -94.63810861 344.57924569 C-94.64612993 340.88349193 -94.65982379 337.18775865 -94.67282104 333.49201965 C-94.69741353 326.2487072 -94.71682453 319.00538961 -94.73457379 311.76205752 C-94.75553183 303.30547878 -94.78198401 294.84891989 -94.80874526 286.39235785 C-94.85642896 271.27598624 -94.89967162 256.15960528 -94.94018555 241.04321289 C-94.97936742 226.42699395 -95.02079271 211.81078415 -95.06518555 197.19458008 C-95.06927196 195.84881245 -95.06927196 195.84881245 -95.07344092 194.47585759 C-95.08440532 190.86782261 -95.09538434 187.25978767 -95.10638306 183.65175279 C-95.19109311 155.85217599 -95.27357146 128.05259139 -95.34939194 100.25298882 C-95.35729645 97.35688353 -95.36535915 94.46077877 -95.37358284 91.56467438 C-95.39537737 83.85129883 -95.41363961 76.13792623 -95.42848706 68.42453408 C-95.43773892 64.65259371 -95.45290033 60.88070466 -95.46848869 57.10878563 C-95.47550319 54.67674676 -95.48238612 52.24470751 -95.48912048 49.81266785 C-95.49511971 48.71165279 -95.50111894 47.61063773 -95.50729996 46.47625858 C-95.52930102 35.22798322 -95.05632254 23.82437323 -89.4375 13.75 C-88.7775 13.42 -88.1175 13.09 -87.4375 12.75 C-87.169375 12.01652344 -86.90125 11.28304687 -86.625 10.52734375 C-82.96270121 1.96190152 -72.72700134 -5.49854684 -64.4375 -9.25 C-42.17553783 -17.49517117 -18.5679919 -15.6273597 0 0 Z " fill="#008EF4" transform="translate(161.4375,72.25)"/>
<path d="M0 0 C10.29508878 9.99080044 16.16596414 23.0629544 16.65308011 37.41965473 C16.6886031 40.72104938 16.69089131 44.02103689 16.68275452 47.32261658 C16.68360894 48.59041523 16.68446337 49.85821388 16.68534368 51.16443068 C16.68757382 54.67171304 16.68358766 58.17896472 16.67856562 61.68624318 C16.67424002 65.4727949 16.67570904 69.25934494 16.6764679 73.04589844 C16.67699179 79.60248664 16.673859 86.15906487 16.66823006 92.71565056 C16.66009689 102.19532791 16.65749797 111.67500045 16.65624207 121.15468092 C16.65405441 136.53549639 16.64740206 151.91630655 16.63793945 167.29711914 C16.62875795 182.236572 16.62168072 197.17602341 16.61743164 212.11547852 C16.61716892 213.03662108 16.61690619 213.95776365 16.61663551 214.90681963 C16.61533045 219.5280032 16.61406675 224.14918678 16.61282361 228.77037036 C16.60245989 267.09691729 16.58484934 305.4234583 16.5625 343.75 C17.44855948 343.74967038 18.33461896 343.74934076 19.24752873 343.74900115 C27.71485096 343.74599157 36.182173 343.7437493 44.64949564 343.74230913 C48.99964741 343.74154378 53.34979872 343.74051061 57.69995022 343.73880196 C81.86920651 343.72956682 106.03619976 343.7541377 130.20385742 344.06738281 C134.26837424 344.11938204 138.33292968 344.1580096 142.39761066 344.1945858 C145.67590364 344.22609002 148.95405751 344.26590796 152.23222923 344.30806351 C153.73618519 344.3261443 155.24017866 344.34140841 156.74419594 344.35334396 C178.14693958 344.53174738 200.7709197 347.34928096 216.625 363.11328125 C218.65270789 364.82620385 219.96944319 365.35062295 222.5625 365.75 C223.35606801 364.00328412 223.35606801 364.00328412 223.5625 361.75 C222.17157108 359.12612865 222.17157108 359.12612865 220.5625 356.75 C220.5625 356.09 220.5625 355.43 220.5625 354.75 C219.9025 354.75 219.2425 354.75 218.5625 354.75 C218.2325 353.1 217.9025 351.45 217.5625 349.75 C216.9025 349.75 216.2425 349.75 215.5625 349.75 C214.758125 348.2340625 214.758125 348.2340625 213.9375 346.6875 C211.41616145 342.26615275 208.21809126 337.07779563 203.5625 334.75 C203.5625 334.09 203.5625 333.43 203.5625 332.75 C202.9025 332.75 202.2425 332.75 201.5625 332.75 C200.36158779 331.31557708 199.16536158 329.87671029 198.00390625 328.41015625 C196.53544465 326.71883869 195.00344183 325.38865961 193.25 324 C192.363125 323.2575 191.47625 322.515 190.5625 321.75 C190.5625 321.09 190.5625 320.43 190.5625 319.75 C189.758125 319.4096875 189.758125 319.4096875 188.9375 319.0625 C183.8401235 316.24552878 179.48351233 312.016984 175.5625 307.75 C175.5625 307.09 175.5625 306.43 175.5625 305.75 C178.81457092 307.16738489 180.87611067 308.87526412 183.3125 311.4375 C187.21711064 315.44296774 191.32970212 319.0986304 195.5625 322.75 C216.97111472 341.32009232 230.3448818 362.40139192 232.84375 390.96484375 C233.31397967 405.87504275 228.54612669 418.79957942 218.5625 429.75 C206.88915245 440.57713834 191.79335067 445.86832866 175.96362305 445.87939453 C175.32258731 445.88111569 174.68155157 445.88283686 174.02109051 445.88461018 C171.8721078 445.88895913 169.72320263 445.88597696 167.57421875 445.8828125 C166.00851414 445.88396103 164.44280974 445.88544093 162.87710571 445.88722229 C158.57376805 445.89027545 154.27046888 445.88591738 149.96713638 445.87917709 C147.24586265 445.87499364 144.52458975 445.87203062 141.80331421 445.86929321 C128.54638631 445.85433954 115.28959638 445.81375181 102.03276062 445.76314545 C98.45466268 445.74959151 94.87656255 445.73675976 91.29846191 445.72393799 C76.01533702 445.66755953 60.73250088 445.58794519 45.44961548 445.48553467 C40.41786861 445.45221804 35.38615144 445.42539075 30.3543396 445.40411377 C24.35794643 445.37823486 18.36181276 445.33784712 12.36558151 445.28693962 C10.15350835 445.27042039 7.94139283 445.25870981 5.72926712 445.25235176 C-22.27165922 445.16344828 -48.13803092 440.32863705 -69.0703125 420.27734375 C-85.56027383 402.67172497 -94.57509904 382.93605429 -94.59571838 358.59321594 C-94.60312535 356.739751 -94.60312535 356.739751 -94.61068195 354.84884232 C-94.62337417 351.42563463 -94.63167179 348.00246746 -94.63810861 344.57924569 C-94.64612993 340.88349193 -94.65982379 337.18775865 -94.67282104 333.49201965 C-94.69741353 326.2487072 -94.71682453 319.00538961 -94.73457379 311.76205752 C-94.75553183 303.30547878 -94.78198401 294.84891989 -94.80874526 286.39235785 C-94.85642896 271.27598624 -94.89967162 256.15960528 -94.94018555 241.04321289 C-94.97936742 226.42699395 -95.02079271 211.81078415 -95.06518555 197.19458008 C-95.06927196 195.84881245 -95.06927196 195.84881245 -95.07344092 194.47585759 C-95.08440532 190.86782261 -95.09538434 187.25978767 -95.10638306 183.65175279 C-95.19109311 155.85217599 -95.27357146 128.05259139 -95.34939194 100.25298882 C-95.35729645 97.35688353 -95.36535915 94.46077877 -95.37358284 91.56467438 C-95.39537737 83.85129883 -95.41363961 76.13792623 -95.42848706 68.42453408 C-95.43773892 64.65259371 -95.45290033 60.88070466 -95.46848869 57.10878563 C-95.47550319 54.67674676 -95.48238612 52.24470751 -95.48912048 49.81266785 C-95.49511971 48.71165279 -95.50111894 47.61063773 -95.50729996 46.47625858 C-95.52930102 35.22798322 -95.05632254 23.82437323 -89.4375 13.75 C-88.7775 13.42 -88.1175 13.09 -87.4375 12.75 C-87.169375 12.01652344 -86.90125 11.28304687 -86.625 10.52734375 C-82.96270121 1.96190152 -72.72700134 -5.49854684 -64.4375 -9.25 C-42.17553783 -17.49517117 -18.5679919 -15.6273597 0 0 Z " fill="#0074E8" transform="translate(161.4375,72.25)"/>
<path d="M0 0 C0.33 0 0.66 0 1 0 C1.01030746 1.08328079 1.02061493 2.16656158 1.03123474 3.28266907 C1.12889324 13.4800797 1.23162017 23.67742827 1.33933926 33.87473774 C1.394558 39.11756082 1.4479764 44.3603895 1.49731445 49.60327148 C1.54497337 54.6607422 1.59731685 59.71814451 1.65294075 64.77553368 C1.67335735 66.70726003 1.69207159 68.63900513 1.70907402 70.57076454 C1.73313331 73.27161069 1.76318591 75.97232744 1.79467773 78.6730957 C1.8004332 79.47582413 1.80618866 80.27855255 1.81211853 81.10560608 C1.85490298 84.32315481 1.97536362 86.92609086 3 90 C2.505 90.99 2.505 90.99 2 92 C1.90460372 93.47414255 1.86926517 94.95246294 1.8671875 96.4296875 C1.86589844 97.30753906 1.86460938 98.18539062 1.86328125 99.08984375 C1.86714844 100.00894531 1.87101562 100.92804688 1.875 101.875 C1.87113281 102.78636719 1.86726563 103.69773437 1.86328125 104.63671875 C1.86457031 105.51714844 1.86585937 106.39757812 1.8671875 107.3046875 C1.86831543 108.10890137 1.86944336 108.91311523 1.87060547 109.74169922 C1.99761508 111.95837636 2.41799901 113.86421396 3 116 C3.14819861 117.64390679 3.27096056 119.29020884 3.375 120.9375 C4.14528468 129.8016991 5.72716268 138.45164748 10.08984375 146.28125 C11 148 11 148 12.125 151.4375 C12.71677773 154.15085833 12.71677773 154.15085833 15 155 C15.97841787 156.38872214 16.90958052 157.81104652 17.8125 159.25 C21.79922897 165.35588831 26.88904892 171.62968297 34 174 C34.433125 174.45375 34.86625 174.9075 35.3125 175.375 C37.61429079 177.59153928 40.11080093 178.63717025 43 180 C43.5878125 180.309375 44.175625 180.61875 44.78125 180.9375 C52.82794629 185.15871773 60.76865253 188.30503708 69.90625 188.82421875 C72 189 72 189 75 190 C85.55809743 191.34071078 96.44021903 191.47201095 107 192 C107.33 164.94 107.66 137.88 108 110 C109.485 110.495 109.485 110.495 111 111 C111 138.39 111 165.78 111 194 C121.745625 193.979375 132.49125 193.95875 143.5625 193.9375 C150.41150257 193.93398471 157.26039455 193.931559 164.109375 193.94140625 C164.97488731 193.94264559 165.84039963 193.94388493 166.73213959 193.94516182 C186.72996815 193.97788525 206.72610374 194.12458919 226.72266769 194.34743118 C229.29988572 194.37486572 231.87711375 194.39875458 234.45437622 194.42160034 C238.53722539 194.45826119 242.61985992 194.5045077 246.70252228 194.55800056 C248.1925644 194.57621211 249.68264637 194.59147585 251.17275238 194.60336113 C272.57853293 194.78168658 295.20577478 197.59665106 311.0625 213.36328125 C313.09020789 215.07620385 314.40694319 215.60062295 317 216 C317.79356801 214.25328412 317.79356801 214.25328412 318 212 C316.60907108 209.37612865 316.60907108 209.37612865 315 207 C315 206.34 315 205.68 315 205 C314.34 205 313.68 205 313 205 C312.67 203.35 312.34 201.7 312 200 C311.34 200 310.68 200 310 200 C309.195625 198.4840625 309.195625 198.4840625 308.375 196.9375 C305.85366145 192.51615275 302.65559126 187.32779563 298 185 C298 184.34 298 183.68 298 183 C297.34 183 296.68 183 296 183 C294.79908779 181.56557708 293.60286158 180.12671029 292.44140625 178.66015625 C290.97294465 176.96883869 289.44094183 175.63865961 287.6875 174.25 C286.800625 173.5075 285.91375 172.765 285 172 C285 171.34 285 170.68 285 170 C284.195625 169.6596875 284.195625 169.6596875 283.375 169.3125 C278.2776235 166.49552878 273.92101233 162.266984 270 158 C270 157.34 270 156.68 270 156 C273.25207092 157.41738489 275.31361067 159.12526412 277.75 161.6875 C281.65461064 165.69296774 285.76720212 169.3486304 290 173 C311.40861472 191.57009232 324.7823818 212.65139192 327.28125 241.21484375 C327.75147967 256.12504275 322.98362669 269.04957942 313 280 C301.32665245 290.82713834 286.23085067 296.11832866 270.40112305 296.12939453 C269.76008731 296.13111569 269.11905157 296.13283686 268.45859051 296.13461018 C266.3096078 296.13895913 264.16070263 296.13597696 262.01171875 296.1328125 C260.44601414 296.13396103 258.88030974 296.13544093 257.31460571 296.13722229 C253.01126805 296.14027545 248.70796888 296.13591738 244.40463638 296.12917709 C241.68336265 296.12499364 238.96208975 296.12203062 236.24081421 296.11929321 C222.98388631 296.10433954 209.72709638 296.06375181 196.47026062 296.01314545 C192.89216268 295.99959151 189.31406255 295.98675976 185.73596191 295.97393799 C170.45283702 295.91755953 155.17000088 295.83794519 139.88711548 295.73553467 C134.85536861 295.70221804 129.82365144 295.67539075 124.7918396 295.65411377 C118.79544643 295.62823486 112.79931276 295.58784712 106.80308151 295.53693962 C104.59100835 295.52042039 102.37889283 295.50870981 100.16676712 295.50235176 C72.16584078 295.41344828 46.29946908 290.57863705 25.3671875 270.52734375 C9.98888946 254.1085998 -0.19955174 234.82199821 -0.12025452 211.88845825 C-0.12110894 210.98086663 -0.12196337 210.07327501 -0.12284368 209.13818061 C-0.12448835 206.10267964 -0.11899368 203.06723415 -0.11352539 200.03173828 C-0.11324327 197.85354107 -0.11340173 195.67534376 -0.1139679 193.49714661 C-0.11425492 187.58652506 -0.10837352 181.67592378 -0.10139394 175.76530695 C-0.09514459 169.58734394 -0.09455535 163.40938048 -0.09336853 157.23141479 C-0.09025989 145.53371613 -0.08205277 133.8360268 -0.07201904 122.13833225 C-0.06084343 108.82043056 -0.0553438 95.50252938 -0.05032361 82.18462396 C-0.03986979 54.78974413 -0.02227935 27.39487259 0 0 Z " fill="#0061E0" transform="translate(67,222)"/>
<path d="M0 0 C0.99 0.495 0.99 0.495 2 1 C1.26232283 48.05235689 -10.83012383 98.23865442 -40.6875 135.75 C-43.18660096 138.58662012 -43.18660096 138.58662012 -42.97843933 140.85090637 C-41.52292634 144.04786871 -39.14197544 146.22374165 -36.6574707 148.63549805 C-36.10125534 149.18733261 -35.54503998 149.73916718 -34.9719696 150.307724 C-33.76338602 151.50489585 -32.55134924 152.69858933 -31.33629799 153.8891964 C-29.40775544 155.77938608 -27.48879455 157.67884381 -25.57206726 159.58100891 C-20.80538468 164.30760326 -16.02275587 169.01795664 -11.24029541 173.72857666 C-7.20554726 177.70385858 -3.1771764 181.68540281 0.84311867 185.67530251 C2.7235943 187.53648544 4.61295421 189.38830814 6.50285339 191.23991394 C22.32611768 206.85684742 22.32611768 206.85684742 23.3125 217.3125 C22.82575206 223.05612567 20.62503463 226.49387034 16.4375 230.375 C11.90599673 233.39600218 7.35860193 233.3315583 2.08203125 233.57421875 C1.16210892 233.6165715 0.24218658 233.65892426 -0.70561218 233.70256042 C-12.01474874 234.15926555 -23.31680445 234.05280642 -34.63110352 233.86791992 C-38.32505772 233.81231096 -42.01863751 233.78395163 -45.71289062 233.75585938 C-61.39189209 233.55982666 -76.21511532 232.8827739 -90.3125 225.25 C-90.97290283 224.90420898 -91.63330566 224.55841797 -92.3137207 224.20214844 C-111.35436948 213.98103365 -126.11317892 197.03052532 -141.20703125 181.890625 C-143.02669132 180.06909569 -144.84657538 178.24779012 -146.66667175 176.42669678 C-150.93218274 172.15778527 -155.19546426 167.88665948 -159.45762032 163.61439872 C-164.31917109 158.74157853 -169.18364235 153.87167812 -174.04833186 149.00199175 C-184.03541885 139.00451844 -194.01892795 129.00347822 -204 119 C-203.67 118.01 -203.34 117.02 -203 116 C-202.39414062 115.9575415 -201.78828125 115.91508301 -201.1640625 115.87133789 C-194.87591737 115.34833351 -189.05175871 114.20190138 -183 112.4375 C-182.09354736 112.17356445 -181.18709473 111.90962891 -180.25317383 111.63769531 C-162.17934937 106.17751609 -144.23520456 97.7162423 -130.6015625 84.3984375 C-129 83 -129 83 -127 83 C-126.505 81.515 -126.505 81.515 -126 80 C-125.34 80 -124.68 80 -124 80 C-123.73316406 79.41734375 -123.46632813 78.8346875 -123.19140625 78.234375 C-121.97382431 75.95090985 -120.6063981 74.22269279 -118.9375 72.25 C-111.30976037 62.54052309 -105.80473662 51.62670846 -101.85131836 39.96459961 C-100.18494333 35.09247167 -100.18494333 35.09247167 -98 34 C-98.75206548 42.57354642 -101.93215309 48.99541381 -105.81640625 56.5703125 C-107.04011235 58.97360356 -107.04011235 58.97360356 -107.90234375 61.4921875 C-109.20032712 64.45768686 -110.90739911 66.53675394 -113 69 C-113.63679687 69.80179687 -114.27359375 70.60359375 -114.9296875 71.4296875 C-118.86149389 76.37207866 -122.85583516 81.23421044 -127 86 C-125.40671875 85.96519531 -125.40671875 85.96519531 -123.78125 85.9296875 C-112.23511617 85.7494072 -103.73572514 87.46811603 -93 92 C-93 92.66 -93 93.32 -93 94 C-92.30003906 94.22042969 -91.60007812 94.44085938 -90.87890625 94.66796875 C-87.3161607 96.31640326 -84.75004233 98.63979606 -81.9375 101.3125 C-81.37313232 101.84012939 -80.80876465 102.36775879 -80.22729492 102.91137695 C-75.70872662 107.1930213 -71.49295907 111.71259156 -67.32788086 116.33520508 C-63.5214847 120.52991836 -59.46818906 124.32047867 -55.15625 128 C-52.81322994 130.17323599 -50.87305269 132.41178174 -49 135 C-49 135.66 -49 136.32 -49 137 C-46.54775306 136.89386164 -46.54775306 136.89386164 -44 136 C-42.75285597 133.59047977 -42.75285597 133.59047977 -42 131 C-41.34 130.34 -40.68 129.68 -40 129 C-38.46649739 127.03711666 -37.11484922 125.22969844 -36 123 C-35.34 123 -34.68 123 -34 123 C-34 121.68 -34 120.36 -34 119 C-33.34 119 -32.68 119 -32 119 C-31.731875 118.278125 -31.46375 117.55625 -31.1875 116.8125 C-30 114 -30 114 -28.4375 111.4375 C-27.12887975 109.21853522 -26.46467564 107.50924843 -26 105 C-25.34 105 -24.68 105 -24 105 C-23.67 102.69 -23.34 100.38 -23 98 C-22.34 98 -21.68 98 -21 98 C-20.608125 96.7625 -20.21625 95.525 -19.8125 94.25 C-18.59230148 90.5603777 -17.17068025 87.02816966 -15.61328125 83.46875 C-12.97733664 77.1825543 -11.08868768 70.83977799 -9.375 64.25 C-9.07650146 63.12053955 -8.77800293 61.9910791 -8.47045898 60.82739258 C-4.41498737 45.60770683 -4.41498737 45.60770683 -3 30 C-2.67 29.67 -2.34 29.34 -2 29 C-1.92769007 26.18443216 -2.00376369 23.38207789 -2.0625 20.56640625 C-2 18 -2 18 -1 16 C-0.7677354 13.28737884 -0.58063765 10.59226874 -0.4375 7.875 C-0.37272461 6.74384766 -0.37272461 6.74384766 -0.30664062 5.58984375 C-0.2005168 3.72678112 -0.09974999 1.86341476 0 0 Z " fill="#0057DF" transform="translate(626,286)"/>
<path d="M0 0 C0.33 0 0.66 0 1 0 C1.1959375 1.1859375 1.391875 2.371875 1.59375 3.59375 C5.51649752 25.49196471 15.51314047 44.03014117 34 57.125 C46.9683176 65.51626433 59.84341675 69.80773666 75 72 C76.79630859 72.26683594 76.79630859 72.26683594 78.62890625 72.5390625 C84.5589546 73.260762 90.53450321 73.36255753 96.5 73.5625 C98.30597656 73.62727539 98.30597656 73.62727539 100.1484375 73.69335938 C103.09886193 73.79873168 106.04936071 73.90085903 109 74 C109 74.99 109 75.98 109 77 C107.18757948 77.02687279 105.37504767 77.04633715 103.5625 77.0625 C102.55316406 77.07410156 101.54382813 77.08570313 100.50390625 77.09765625 C98 77 98 77 97 76 C95.65732587 75.91368126 94.31025678 75.89293527 92.96484375 75.90234375 C92.15595703 75.90556641 91.34707031 75.90878906 90.51367188 75.91210938 C89.66353516 75.92048828 88.81339844 75.92886719 87.9375 75.9375 C87.08349609 75.94201172 86.22949219 75.94652344 85.34960938 75.95117188 C83.23304337 75.96299627 81.11651315 75.98093231 79 76 C79 75.34 79 74.68 79 74 C78.01 74.495 78.01 74.495 77 75 C69.53844887 74.95343806 62.90504185 73.72451332 56 71 C54.29457031 70.35224609 54.29457031 70.35224609 52.5546875 69.69140625 C49.36406153 68.47510931 46.18009111 67.24352867 43 66 C43 65.34 43 64.68 43 64 C42.278125 63.71125 41.55625 63.4225 40.8125 63.125 C39.884375 62.75375 38.95625 62.3825 38 62 C37.175 61.731875 36.35 61.46375 35.5 61.1875 C32.31347019 59.67389834 30.45712175 57.51705154 28 55 C27.0925 54.46375 26.185 53.9275 25.25 53.375 C15.6133195 47.29262763 10.14501334 35.44252146 5.40234375 25.546875 C4.25365958 22.89024514 4.25365958 22.89024514 2 22 C2.16226074 23.26368408 2.32452148 24.52736816 2.49169922 25.8293457 C3.07894409 31.13934725 3.14429604 36.39259574 3.1328125 41.73046875 C3.13376923 42.72452225 3.13472595 43.71857574 3.13571167 44.74275208 C3.13638805 46.82939722 3.13457184 48.91604453 3.13037109 51.00268555 C3.124998 54.18868735 3.13034332 57.3745493 3.13671875 60.56054688 C3.13605821 62.59635448 3.13477753 64.63216199 3.1328125 66.66796875 C3.13483673 67.6149614 3.13686096 68.56195404 3.13894653 69.53764343 C3.12263505 74.15063988 2.88665131 78.45553486 2 83 C1.48177409 93.84658891 2.06503463 103.73819491 6.14453125 113.84375 C7.57146172 117.44039667 8.78154011 121.1171874 10.03515625 124.77734375 C10.78719318 127.16125498 10.78719318 127.16125498 13 128 C14.01936943 129.99019747 15.01462479 131.9927542 16 134 C19.02166803 139.52533583 22.08880764 143.09336971 27 147 C27.33 147.99 27.66 148.98 28 150 C29.88536956 151.64825253 31.74232763 153.14314659 33.75 154.625 C34.79671875 155.42164063 35.8434375 156.21828125 36.921875 157.0390625 C39.79812582 158.87139487 41.65387124 159.64060098 45 160 C45 160.66 45 161.32 45 162 C47.64 163.32 50.28 164.64 53 166 C52.67 166.66 52.34 167.32 52 168 C44.60416323 164.16147635 37.6539699 160.02397056 31 155 C30.33484375 154.50242187 29.6696875 154.00484375 28.984375 153.4921875 C13.23986607 140.7557758 2.67646846 120.93326355 0 101 C-0.13761872 97.68195999 -0.12646136 94.36783168 -0.11352539 91.04736328 C-0.11367142 90.0613765 -0.11381744 89.07538971 -0.1139679 88.05952454 C-0.11327339 84.81309784 -0.10550262 81.56672912 -0.09765625 78.3203125 C-0.09579043 76.06444327 -0.0943673 73.80857364 -0.09336853 71.55270386 C-0.08955627 65.62454097 -0.07973701 59.6964027 -0.06866455 53.76824951 C-0.05842266 47.71529473 -0.05386496 41.66233596 -0.04882812 35.609375 C-0.03811358 23.73957253 -0.02105266 11.86978832 0 0 Z " fill="#019AFB" transform="translate(67,342)"/>
<path d="M0 0 C0.33 0 0.66 0 1 0 C1.01030746 1.08328079 1.02061493 2.16656158 1.03123474 3.28266907 C1.12889324 13.4800797 1.23162017 23.67742827 1.33933926 33.87473774 C1.394558 39.11756082 1.4479764 44.3603895 1.49731445 49.60327148 C1.54497337 54.6607422 1.59731685 59.71814451 1.65294075 64.77553368 C1.67335735 66.70726003 1.69207159 68.63900513 1.70907402 70.57076454 C1.73313331 73.27161069 1.76318591 75.97232744 1.79467773 78.6730957 C1.8004332 79.47582413 1.80618866 80.27855255 1.81211853 81.10560608 C1.85490298 84.32315481 1.97536362 86.92609086 3 90 C2.505 90.99 2.505 90.99 2 92 C1.90460372 93.47414255 1.86926517 94.95246294 1.8671875 96.4296875 C1.86589844 97.30753906 1.86460938 98.18539062 1.86328125 99.08984375 C1.86714844 100.00894531 1.87101562 100.92804688 1.875 101.875 C1.87113281 102.78636719 1.86726563 103.69773437 1.86328125 104.63671875 C1.86457031 105.51714844 1.86585937 106.39757812 1.8671875 107.3046875 C1.86831543 108.10890137 1.86944336 108.91311523 1.87060547 109.74169922 C1.99761508 111.95837636 2.41799901 113.86421396 3 116 C3.14819861 117.64390679 3.27096056 119.29020884 3.375 120.9375 C4.14528468 129.8016991 5.72716268 138.45164748 10.08984375 146.28125 C11 148 11 148 12.125 151.4375 C12.71677773 154.15085833 12.71677773 154.15085833 15 155 C15.97841787 156.38872214 16.90958052 157.81104652 17.8125 159.25 C21.79922897 165.35588831 26.88904892 171.62968297 34 174 C34.433125 174.45375 34.86625 174.9075 35.3125 175.375 C37.61429079 177.59153928 40.11080093 178.63717025 43 180 C43.5878125 180.309375 44.175625 180.61875 44.78125 180.9375 C52.82794629 185.15871773 60.76865253 188.30503708 69.90625 188.82421875 C72 189 72 189 75 190 C85.55809743 191.34071078 96.44021903 191.47201095 107 192 C107.33 164.94 107.66 137.88 108 110 C108.66 110.33 109.32 110.66 110 111 C110 138.39 110 165.78 110 194 C74.95070379 194 47.53782661 192.51615133 21.66015625 167.76171875 C1.13802012 146.32748768 -0.46805804 120.35995788 -0.29296875 92.1875 C-0.28736314 89.51993059 -0.28294971 86.85238549 -0.28010559 84.18481445 C-0.270855 77.92372725 -0.24633812 71.66280093 -0.21605712 65.40178394 C-0.18229274 58.26251477 -0.16597226 51.1232371 -0.15097082 43.9839077 C-0.11978053 29.3225236 -0.0671592 14.66126464 0 0 Z " fill="#012BB4" transform="translate(67,222)"/>
<path d="M0 0 C3.25207092 1.41738489 5.31361067 3.12526412 7.75 5.6875 C11.65461064 9.69296774 15.76720212 13.3486304 20 17 C40.5276041 34.80589302 53.6715923 54.75218779 57 82 C57.37115525 88.08969546 57.3293869 94.01775893 56 100 C55.34 99.67 54.68 99.34 54 99 C54 96.69 54 94.38 54 92 C53.67 92 53.34 92 53 92 C52.85304688 90.53240234 52.85304688 90.53240234 52.703125 89.03515625 C51.07038487 74.72052946 46.64310831 64.12615767 35.41015625 54.66796875 C23.90266731 46.70411498 7.21990577 41.12608383 -6.83984375 41.9921875 C-9 42 -9 42 -12.16381836 41.50439453 C-16.01664914 40.99781091 -19.65527466 40.90248902 -23.5390625 40.9375 C-25.00878844 40.94607092 -26.47851504 40.95452984 -27.94824219 40.96289062 C-28.7118103 40.96909424 -29.47537842 40.97529785 -30.26208496 40.98168945 C-47.20151877 41.11295541 -64.07593225 40.74304641 -81 40 C-81 39.67 -81 39.34 -81 39 C-71.33263693 38.95338457 -61.66531335 38.91798388 -51.99786186 38.89637566 C-47.50748562 38.88599783 -43.01718704 38.87195015 -38.52685547 38.84912109 C-34.18260067 38.82717629 -29.83841993 38.81538643 -25.49411392 38.81024551 C-23.84776776 38.80658817 -22.20142502 38.79944806 -20.55511093 38.78853989 C0.23090773 38.65646127 22.91935299 40.62445804 39 55.3125 C39.680625 55.98925781 40.36125 56.66601562 41.0625 57.36328125 C43.09020789 59.07620385 44.40694319 59.60062295 47 60 C47.79356801 58.25328412 47.79356801 58.25328412 48 56 C46.60907108 53.37612865 46.60907108 53.37612865 45 51 C45 50.34 45 49.68 45 49 C44.34 49 43.68 49 43 49 C42.67 47.35 42.34 45.7 42 44 C41.34 44 40.68 44 40 44 C39.46375 42.989375 38.9275 41.97875 38.375 40.9375 C35.85366145 36.51615275 32.65559126 31.32779563 28 29 C28 28.34 28 27.68 28 27 C27.34 27 26.68 27 26 27 C24.79908779 25.56557708 23.60286158 24.12671029 22.44140625 22.66015625 C20.97294465 20.96883869 19.44094183 19.63865961 17.6875 18.25 C16.800625 17.5075 15.91375 16.765 15 16 C15 15.34 15 14.68 15 14 C14.46375 13.773125 13.9275 13.54625 13.375 13.3125 C8.2776235 10.49552878 3.92101233 6.266984 0 2 C0 1.34 0 0.68 0 0 Z " fill="#075DD8" transform="translate(337,378)"/>
<path d="M0 0 C5.65654072 5.35078176 8.58449267 9.59562232 9.3125 17.3125 C8.82575206 23.05612567 6.62503463 26.49387034 2.4375 30.375 C-2.09400327 33.39600218 -6.64139807 33.3315583 -11.91796875 33.57421875 C-12.83789108 33.6165715 -13.75781342 33.65892426 -14.70561218 33.70256042 C-26.01474874 34.15926555 -37.31680445 34.05280642 -48.63110352 33.86791992 C-52.32505772 33.81231096 -56.01863751 33.78395163 -59.71289062 33.75585938 C-75.39596924 33.55977569 -90.20991854 32.87847026 -104.3125 25.25 C-104.96710205 24.91000977 -105.6217041 24.57001953 -106.29614258 24.21972656 C-112.26910272 21.03239171 -117.70888645 17.2187103 -123 13 C-123.92425781 12.30390625 -124.84851563 11.6078125 -125.80078125 10.890625 C-126.52652344 10.26671875 -127.25226562 9.6428125 -128 9 C-128 8.34 -128 7.68 -128 7 C-127.01 7 -126.02 7 -125 7 C-125 7.66 -125 8.32 -125 9 C-124.12601563 9.39832031 -124.12601563 9.39832031 -123.234375 9.8046875 C-120.93388999 11.03536654 -119.22488125 12.42660213 -117.25 14.125 C-113.06123216 17.43850292 -108.6879426 19.91966 -103.9375 22.3125 C-103.27717773 22.64975098 -102.61685547 22.98700195 -101.93652344 23.33447266 C-98.06432456 25.23221451 -94.32595889 26.59772853 -90.11171436 27.51921558 C-88.14149332 27.96778552 -86.19089199 28.5002296 -84.24333191 29.03874207 C-80.19300943 30.05194251 -76.26657406 30.28975274 -72.1027832 30.2746582 C-71.35862152 30.27976913 -70.61445984 30.28488007 -69.8477478 30.29014587 C-67.41534133 30.30392064 -64.9832218 30.30309532 -62.55078125 30.30078125 C-60.84783322 30.3046729 -59.14488614 30.30900854 -57.44194031 30.31376648 C-53.88565918 30.32120112 -50.32947741 30.32095606 -46.77319336 30.31567383 C-42.22024494 30.30986181 -37.66770103 30.32686506 -33.11481953 30.3500185 C-29.60348645 30.36475444 -26.09225108 30.3656281 -22.58089256 30.36250877 C-20.9019916 30.36302136 -19.22308507 30.36824744 -17.54421425 30.37832069 C-15.19888564 30.39067475 -12.85434937 30.38390183 -10.5090332 30.37231445 C-9.81957108 30.37995819 -9.13010895 30.38760193 -8.41975403 30.39547729 C-4.10262906 30.34839773 -1.44697376 29.60628502 2 27 C5.27933687 23.18887877 6.6537506 20.20001207 6.3984375 15.09375 C5.51327534 10.44230961 3.33260486 6.33260486 0 3 C0 2.01 0 1.02 0 0 Z " fill="#021DA5" transform="translate(640,486)"/>
<path d="M0 0 C1.92517223 5.37548091 -0.88965827 10.01431765 -3 15 C-4.23394033 17.60008855 -5.51365748 20.16295278 -6.8515625 22.7109375 C-8.05133675 24.99121297 -8.05133675 24.99121297 -8.8984375 27.4765625 C-10.1969145 30.45108783 -11.90197243 32.53036607 -14 35 C-14.63679687 35.80179687 -15.27359375 36.60359375 -15.9296875 37.4296875 C-19.86149389 42.37207866 -23.85583516 47.23421044 -28 52 C-26.9378125 51.97679687 -25.875625 51.95359375 -24.78125 51.9296875 C-13.23511617 51.7494072 -4.73572514 53.46811603 6 58 C6 58.66 6 59.32 6 60 C7.04994141 60.33064453 7.04994141 60.33064453 8.12109375 60.66796875 C11.6838393 62.31640326 14.24995767 64.63979606 17.0625 67.3125 C17.62686768 67.84012939 18.19123535 68.36775879 18.77270508 68.91137695 C23.29127338 73.1930213 27.50704093 77.71259156 31.67211914 82.33520508 C35.4785153 86.52991836 39.53181094 90.32047867 43.84375 94 C46.17268446 96.1601711 48.07404547 98.47875044 50 101 C49.67 101.66 49.34 102.32 49 103 C45.403768 99.42867266 41.81097548 95.8539316 38.22119141 92.27612305 C37.00205617 91.06198559 35.78202107 89.84875094 34.56103516 88.63647461 C32.7960683 86.88377449 31.03447093 85.12774494 29.2734375 83.37109375 C28.73568695 82.83850449 28.1979364 82.30591522 27.64389038 81.75718689 C24.3639071 78.47767995 21.29288095 75.08355737 18.31816101 71.52432251 C11.14617929 63.23063677 -0.07380756 56.50130889 -11 55 C-19.88461954 54.55884684 -28.33106124 54.98145293 -37 57 C-36.07038578 55.84775972 -35.1309875 54.70340824 -34.1875 53.5625 C-33.66542969 52.92441406 -33.14335937 52.28632813 -32.60546875 51.62890625 C-31 50 -31 50 -28 49 C-27.67 48.01 -27.34 47.02 -27 46 C-26.34 46 -25.68 46 -25 46 C-24.73316406 45.41734375 -24.46632813 44.8346875 -24.19140625 44.234375 C-22.97382431 41.95090985 -21.6063981 40.22269279 -19.9375 38.25 C-11.83622496 27.93775198 -6.37224983 16.3621647 -2.09375 4.03515625 C-1 1 -1 1 0 0 Z " fill="#0430B9" transform="translate(527,320)"/>
<path d="M0 0 C2.26655398 2.26655398 2.67309078 3.64674493 3.5625 6.6875 C3.81128906 7.51636719 4.06007812 8.34523438 4.31640625 9.19921875 C5.71010297 14.90939331 6.1245637 20.46880364 6.12025452 26.33360291 C6.12110894 27.03787133 6.12196337 27.74213976 6.12284368 28.46774966 C6.12448053 30.80917408 6.11900674 33.15052562 6.11352539 35.49194336 C6.11324311 37.1776835 6.11340206 38.86342375 6.1139679 40.54916382 C6.11425425 45.11266418 6.10838359 49.67613813 6.10139394 54.23963237 C6.09513354 59.01355908 6.09455448 63.78748644 6.09336853 68.56141663 C6.09026313 77.59580259 6.08206041 86.63017642 6.07201904 95.66455704 C6.06083332 105.95230916 6.05534126 116.24006187 6.05032361 126.52781856 C6.03987714 147.68521914 6.02229303 168.8426088 6 190 C5.67 190 5.34 190 5 190 C4.67 162.61 4.34 135.22 4 107 C3.67 107 3.34 107 3 107 C3 101.39 3 95.78 3 90 C3.66 90 4.32 90 5 90 C4.51104248 89.17773926 4.51104248 89.17773926 4.01220703 88.33886719 C2.81329183 85.56858072 2.77122881 83.58940683 2.8046875 80.578125 C2.81435547 79.04091797 2.81435547 79.04091797 2.82421875 77.47265625 C2.84097656 76.40917969 2.85773438 75.34570312 2.875 74.25 C2.88402344 73.17105469 2.89304688 72.09210938 2.90234375 70.98046875 C2.92588695 68.32008722 2.95877201 65.66015664 3 63 C3.66 63 4.32 63 5 63 C5 56.07 5 49.14 5 42 C4.34 42 3.68 42 3 42 C3 41.01 3 40.02 3 39 C3.66 39 4.32 39 5 39 C4.67402832 38.46536133 4.34805664 37.93072266 4.01220703 37.37988281 C2.74916283 34.41023619 2.77308869 32.14495317 2.8046875 28.921875 C2.81113281 27.76171875 2.81757813 26.6015625 2.82421875 25.40625 C2.84097656 24.1996875 2.85773438 22.993125 2.875 21.75 C2.88402344 20.52796875 2.89304688 19.3059375 2.90234375 18.046875 C2.92590487 15.03105218 2.95880294 12.01562508 3 9 C2.34 9 1.68 9 1 9 C0.67 6.03 0.34 3.06 0 0 Z " fill="#0697F8" transform="translate(172,88)"/>
<path d="M0 0 C0.66 0.33 1.32 0.66 2 1 C1.19689257 52.22579223 -13.88381034 99.51544736 -44 141 C-45.9375 140.6875 -45.9375 140.6875 -48 140 C-48.33 139.01 -48.66 138.02 -49 137 C-48.21625 136.938125 -47.4325 136.87625 -46.625 136.8125 C-45.325625 136.4103125 -45.325625 136.4103125 -44 136 C-42.75285597 133.59047977 -42.75285597 133.59047977 -42 131 C-41.01 130.01 -41.01 130.01 -40 129 C-38.46649739 127.03711666 -37.11484922 125.22969844 -36 123 C-35.34 123 -34.68 123 -34 123 C-34 121.68 -34 120.36 -34 119 C-33.34 119 -32.68 119 -32 119 C-31.731875 118.278125 -31.46375 117.55625 -31.1875 116.8125 C-30 114 -30 114 -28.4375 111.4375 C-27.12887975 109.21853522 -26.46467564 107.50924843 -26 105 C-25.34 105 -24.68 105 -24 105 C-23.67 102.69 -23.34 100.38 -23 98 C-22.34 98 -21.68 98 -21 98 C-20.608125 96.7625 -20.21625 95.525 -19.8125 94.25 C-18.59230148 90.5603777 -17.17068025 87.02816966 -15.61328125 83.46875 C-12.97733664 77.1825543 -11.08868768 70.83977799 -9.375 64.25 C-8.9272522 62.55580933 -8.9272522 62.55580933 -8.47045898 60.82739258 C-4.41498737 45.60770683 -4.41498737 45.60770683 -3 30 C-2.505 29.505 -2.505 29.505 -2 29 C-1.92769007 26.18443216 -2.00376369 23.38207789 -2.0625 20.56640625 C-2 18 -2 18 -1 16 C-0.7677354 13.28737884 -0.58063765 10.59226874 -0.4375 7.875 C-0.37272461 6.74384766 -0.37272461 6.74384766 -0.30664062 5.58984375 C-0.2005168 3.72678112 -0.09974999 1.86341476 0 0 Z " fill="#051BA0" transform="translate(626,286)"/>
<path d="M0 0 C0.33 0 0.66 0 1 0 C1.00808685 1.08026459 1.01617371 2.16052917 1.02450562 3.27352905 C1.10218987 13.48352051 1.18998443 23.69338236 1.28752708 33.90320396 C1.33734671 39.1514258 1.38367747 44.3996289 1.421875 49.64794922 C1.45890953 54.71847061 1.50531758 59.78882953 1.55806351 64.85921097 C1.57651133 66.78793089 1.59165425 68.7166855 1.60334396 70.64545822 C1.67582184 82.19674692 1.75975626 92.98197237 6.14453125 103.84375 C7.57146172 107.44039667 8.78154011 111.1171874 10.03515625 114.77734375 C10.78719318 117.16125498 10.78719318 117.16125498 13 118 C14.01936943 119.99019747 15.01462479 121.9927542 16 124 C19.02166803 129.52533583 22.08880764 133.09336971 27 137 C27.33 137.99 27.66 138.98 28 140 C29.88536956 141.64825253 31.74232763 143.14314659 33.75 144.625 C34.79671875 145.42164063 35.8434375 146.21828125 36.921875 147.0390625 C39.79812582 148.87139487 41.65387124 149.64060098 45 150 C45 150.66 45 151.32 45 152 C47.64 153.32 50.28 154.64 53 156 C52.67 156.66 52.34 157.32 52 158 C44.60416323 154.16147635 37.6539699 150.02397056 31 145 C30.33484375 144.50242187 29.6696875 144.00484375 28.984375 143.4921875 C13.21717978 130.73742389 2.72366533 110.9463004 0 91 C-0.13493775 87.98772707 -0.12659501 84.98018673 -0.11352539 81.96533203 C-0.11367142 81.07688095 -0.11381744 80.18842987 -0.1139679 79.27305603 C-0.11327406 76.35128291 -0.10550647 73.42957441 -0.09765625 70.5078125 C-0.09579019 68.47614578 -0.09436717 66.44447861 -0.09336853 64.41281128 C-0.08955815 59.07648467 -0.07974051 53.74018545 -0.06866455 48.40386963 C-0.05841861 42.95414602 -0.05386409 37.50441797 -0.04882812 32.0546875 C-0.03811689 21.36977966 -0.02105826 10.68489211 0 0 Z " fill="#0689F2" transform="translate(67,352)"/>
<path d="M0 0 C9.66736307 -0.04661543 19.33468665 -0.08201612 29.00213814 -0.10362434 C33.49251438 -0.11400217 37.98281296 -0.12804985 42.47314453 -0.15087891 C46.81739933 -0.17282371 51.16158007 -0.18461357 55.50588608 -0.18975449 C57.15223224 -0.19341183 58.79857498 -0.20055194 60.44488907 -0.21146011 C82.92398036 -0.35429686 105.86163005 2.4430952 122.8125 18.71484375 C129.98210263 26.20451792 134.89357544 34.48896665 136 45 C136.33 45 136.66 45 137 45 C137.71033431 50.52967941 138.30267176 55.49983036 137 61 C136.34 60.67 135.68 60.34 135 60 C135 57.69 135 55.38 135 53 C134.67 53 134.34 53 134 53 C133.90203125 52.02160156 133.8040625 51.04320312 133.703125 50.03515625 C132.07038487 35.72052946 127.64310831 25.12615767 116.41015625 15.66796875 C104.90266731 7.70411498 88.21990577 2.12608383 74.16015625 2.9921875 C72 3 72 3 68.83618164 2.50439453 C64.98335086 1.99781091 61.34472534 1.90248902 57.4609375 1.9375 C55.99121156 1.94607092 54.52148496 1.95452984 53.05175781 1.96289062 C52.2881897 1.96909424 51.52462158 1.97529785 50.73791504 1.98168945 C33.79848123 2.11295541 16.92406775 1.74304641 0 1 C0 0.67 0 0.34 0 0 Z " fill="#010991" transform="translate(256,417)"/>
<path d="M0 0 C0.33 0 0.66 0 1 0 C1.01030746 1.08328079 1.02061493 2.16656158 1.03123474 3.28266907 C1.12889324 13.4800797 1.23162017 23.67742827 1.33933926 33.87473774 C1.394558 39.11756082 1.4479764 44.3603895 1.49731445 49.60327148 C1.54497337 54.6607422 1.59731685 59.71814451 1.65294075 64.77553368 C1.67335735 66.70726003 1.69207159 68.63900513 1.70907402 70.57076454 C1.73313331 73.27161069 1.76318591 75.97232744 1.79467773 78.6730957 C1.8004332 79.47582413 1.80618866 80.27855255 1.81211853 81.10560608 C1.85490298 84.32315481 1.97536362 86.92609086 3 90 C2.505 90.99 2.505 90.99 2 92 C1.90460372 93.47414255 1.86926517 94.95246294 1.8671875 96.4296875 C1.86589844 97.30753906 1.86460938 98.18539062 1.86328125 99.08984375 C1.86714844 100.00894531 1.87101562 100.92804688 1.875 101.875 C1.87113281 102.78636719 1.86726563 103.69773437 1.86328125 104.63671875 C1.86457031 105.51714844 1.86585937 106.39757812 1.8671875 107.3046875 C1.86831543 108.10890137 1.86944336 108.91311523 1.87060547 109.74169922 C1.99761508 111.95837636 2.41799901 113.86421396 3 116 C3.14819861 117.64390679 3.27096056 119.29020884 3.375 120.9375 C4.14528468 129.8016991 5.72716268 138.45164748 10.08984375 146.28125 C11 148 11 148 12.125 151.4375 C12.71677773 154.15085833 12.71677773 154.15085833 15 155 C15.97841787 156.38872214 16.90958052 157.81104652 17.8125 159.25 C20.22273181 162.95352692 22.73165123 165.99665248 26 169 C27 170 28 171 29 172 C25.50338947 172 25.24355848 171.67533732 22.875 169.3125 C1.74761161 147.02622532 -0.47543591 121.54708298 -0.29296875 92.1875 C-0.28736314 89.51993059 -0.28294971 86.85238549 -0.28010559 84.18481445 C-0.270855 77.92372725 -0.24633812 71.66280093 -0.21605712 65.40178394 C-0.18229274 58.26251477 -0.16597226 51.1232371 -0.15097082 43.9839077 C-0.11978053 29.3225236 -0.0671592 14.66126464 0 0 Z " fill="#013EC2" transform="translate(67,222)"/>
<path d="M0 0 C-2.88628401 1.57554035 -5.53342384 2.46276373 -8.75 3.125 C-9.54921875 3.29257812 -10.3484375 3.46015625 -11.171875 3.6328125 C-11.77515625 3.75398438 -12.3784375 3.87515625 -13 4 C-12.67 4.99 -12.34 5.98 -12 7 C-11.401875 7.28875 -10.80375 7.5775 -10.1875 7.875 C-7.28204054 9.3692363 -5.98151055 11.4180317 -4 14 C-0.73616143 17.44026227 2.74345119 20.51750003 6.3515625 23.58203125 C8.34815838 25.29948221 10.24487318 27.03425796 12 29 C12 29.66 12 30.32 12 31 C12.66 31 13.32 31 14 31 C14 31.66 14 32.32 14 33 C14.99 33.33 15.98 33.66 17 34 C18.6875 35.4375 18.6875 35.4375 20 37 C20 37.66 20 38.32 20 39 C20.66 39 21.32 39 22 39 C22 39.66 22 40.32 22 41 C22.99 41.33 23.98 41.66 25 42 C27.53369755 44.33879774 29.77219056 46.70384772 31.875 49.4375 C34.1425388 52.17188502 36.58345526 54.3182148 39.31640625 56.5703125 C40.98009665 57.98309832 42.54889956 59.36806333 44 61 C44 61.66 44 62.32 44 63 C44.5775 63.226875 45.155 63.45375 45.75 63.6875 C48.58434736 65.3408693 49.96762189 67.42963944 52 70 C53.97956942 71.69088222 55.97945196 73.35830472 58 75 C59.35251497 76.31387169 60.68945377 77.64426252 62 79 C62.5775 79.53625 63.155 80.0725 63.75 80.625 C65 82 65 82 65 84 C65.53625 84.226875 66.0725 84.45375 66.625 84.6875 C69.78500863 86.43382056 72.2676983 88.6402849 75 91 C74.01 91.66 73.02 92.32 72 93 C42.63 63.63 13.26 34.26 -17 4 C-16.67 3.01 -16.34 2.02 -16 1 C-10.65097076 0.40801257 -5.39115154 -0.14187241 0 0 Z " fill="#0949CA" transform="translate(439,401)"/>
<path d="M0 0 C1.46749524 4.30593998 0.25923494 6.54412726 -1.640625 10.5 C-9.23224857 24.46160656 -19.57037109 32.91703109 -34.82617188 37.56665039 C-41.63594003 39.38787112 -48.18846341 39.37942063 -55.19921875 39.29296875 C-57.17351616 39.28660149 -57.17351616 39.28660149 -59.18769836 39.28010559 C-62.64832378 39.2687759 -66.10855764 39.23941508 -69.56903076 39.20599365 C-73.11562812 39.17503284 -76.66229017 39.16154531 -80.20898438 39.14648438 C-87.13948144 39.11453071 -94.0697218 39.06348281 -101 39 C-101 38.67 -101 38.34 -101 38 C-94.10910537 37.0967179 -87.28105798 36.92727856 -80.34375 36.97265625 C-79.46992676 36.97816498 -78.59610352 36.98367371 -77.69580078 36.98934937 C-74.0446508 37.01696082 -70.39366253 37.05165957 -66.74267578 37.09594727 C-54.96158738 37.22932204 -43.95135076 37.12919453 -32.625 33.4375 C-29.43332027 32.40740939 -26.29921431 31.61204506 -23 31 C-23 30.34 -23 29.68 -23 29 C-21.33779419 27.99260254 -19.66979326 26.99477045 -18 26 C-13.69727311 22.74235557 -10.65529766 19.75158529 -8 15 C-7.34 15 -6.68 15 -6 15 C-5.62875 13.7934375 -5.62875 13.7934375 -5.25 12.5625 C-3.73921353 8.25675857 -1.89811144 4.14635993 0 0 Z " fill="#04179C" transform="translate(391,478)"/>
<path d="M0 0 C5.89730898 4.74558683 11.32487961 10.00325299 16.25 15.74609375 C21.46453452 21.7898861 27.2611176 27.26947473 32.96875 32.84179688 C33.82984375 33.69193359 34.6909375 34.54207031 35.578125 35.41796875 C36.35575195 36.17875732 37.13337891 36.9395459 37.93457031 37.72338867 C40.01119776 40.01234269 41.50822585 42.30129365 43 45 C39.74698204 43.6068597 37.96613784 42.05039845 35.75 39.3125 C33.31001458 36.41795627 30.82886075 33.88105918 27.9375 31.4375 C24.73577476 28.72406876 22.03913149 25.86091944 19.37109375 22.62890625 C16.70800513 19.46506592 13.688313 16.65110689 10.6875 13.8125 C9 12 9 12 9 10 C8.34 10 7.68 10 7 10 C7 9.34 7 8.68 7 8 C6.01 8 5.02 8 4 8 C2.73017725 6.50226034 1.46426327 5.00015749 0.25 3.45703125 C-1.3233231 1.62312652 -2.76033396 0.88229268 -5 0 C-5.886875 -0.474375 -6.77375 -0.94875 -7.6875 -1.4375 C-21.79495684 -8.09196077 -34.31490678 -7.56869567 -49 -3 C-37.19657127 -16.33488626 -12.37660815 -8.4213672 0 0 Z " fill="#0097FA" transform="translate(537,383)"/>
<path d="M0 0 C3.31127071 3.79160936 4.92115959 8.1911403 6.75 12.8125 C7.27062012 14.12734375 7.27062012 14.12734375 7.80175781 15.46875 C14.28847882 32.20791357 19.03065906 49.30147443 22 67 C22.32097656 68.88332031 22.32097656 68.88332031 22.6484375 70.8046875 C24.30948113 81.8060924 24.62556619 92.89331903 25 104 C24.01 104 23.02 104 22 104 C22.05220703 102.66775391 22.05220703 102.66775391 22.10546875 101.30859375 C22.78051823 69.45268716 14.77820536 37.31250331 2.13330078 8.23852539 C0.87055488 5.31283691 0 3.22486365 0 0 Z " fill="#0664D9" transform="translate(603,182)"/>
<path d="M0 0 C0.99 1.485 0.99 1.485 2 3 C-1.33333333 1.66666667 -4.66666667 0.33333333 -8 -1 C-8 -1.66 -8 -2.32 -8 -3 C-9.09699219 -3.20496094 -10.19398438 -3.40992187 -11.32421875 -3.62109375 C-12.77864887 -3.89321293 -14.23307578 -4.16534925 -15.6875 -4.4375 C-16.40873047 -4.57220703 -17.12996094 -4.70691406 -17.87304688 -4.84570312 C-18.93168945 -5.04389648 -18.93168945 -5.04389648 -20.01171875 -5.24609375 C-21.05368408 -5.43981567 -21.05368408 -5.43981567 -22.11669922 -5.63745117 C-23.60037885 -5.92307008 -25.07723293 -6.2441508 -26.55078125 -6.578125 C-40.35981152 -8.95671395 -53.69577669 -6.49323005 -65.2109375 1.54296875 C-74.30827992 8.45629214 -79.87916295 15.79584119 -85 26 C-86.25541557 22.23375329 -85.37061958 20.62811066 -84 17 C-83.34 17 -82.68 17 -82 17 C-81.773125 16.28714844 -81.54625 15.57429688 -81.3125 14.83984375 C-76.79490088 5.06515755 -65.52757362 -2.58238014 -55.73046875 -6.2109375 C-36.53121062 -12.39858412 -17.14206108 -10.93116938 0 0 Z " fill="#069EF8" transform="translate(156,68)"/>
<path d="M0 0 C1.80994949 0.00212242 1.80994949 0.00212242 3.65646362 0.00428772 C7.47673109 0.00984543 11.29693802 0.02238997 15.1171875 0.03515625 C17.72135331 0.04017672 20.32552006 0.04473867 22.9296875 0.04882812 C29.28387451 0.05980098 35.63802668 0.07649651 41.9921875 0.09765625 C41.9921875 0.75765625 41.9921875 1.41765625 41.9921875 2.09765625 C59.8121875 2.09765625 77.6321875 2.09765625 95.9921875 2.09765625 C95.9921875 2.42765625 95.9921875 2.75765625 95.9921875 3.09765625 C85.64442785 3.12123257 75.29667497 3.13879462 64.94889355 3.14946842 C60.13966587 3.1546013 55.33045705 3.16151477 50.52124023 3.1730957 C25.99171224 3.23063226 1.50690205 2.983942 -23.0078125 2.09765625 C-23.0078125 1.76765625 -23.0078125 1.43765625 -23.0078125 1.09765625 C-15.31934063 0.14085206 -7.74156719 -0.03470113 0 0 Z " fill="#0446C7" transform="translate(248.0078125,514.90234375)"/>
<path d="M0 0 C2.3000993 2.3000993 2.42552031 3.31376669 3 6.4375 C3.60457053 9.71405634 4.086971 11.1304565 6 14 C5.67 14.99 5.34 15.98 5 17 C5.84958898 20.3983559 6.89275334 23.67826002 8 27 C7.67 27.33 7.34 27.66 7 28 C6.84201824 29.81650847 6.74888743 31.63874157 6.68359375 33.4609375 C6.64169922 34.57210937 6.59980469 35.68328125 6.55664062 36.828125 C6.51732422 37.99859375 6.47800781 39.1690625 6.4375 40.375 C6.37272461 42.11910156 6.37272461 42.11910156 6.30664062 43.8984375 C6.07976042 49.94775831 6.07976042 49.94775831 6 56 C5.38644584 58.61687985 4.74351306 61.21333944 4.0625 63.8125 C2.83294586 68.52651498 1.71979135 73.17360955 1 78 C-1 75 -1 75 -0.87573242 72.90625 C-0.70404541 72.1121875 -0.5323584 71.318125 -0.35546875 70.5 C-0.17338867 69.61820068 0.00869141 68.73640137 0.19628906 67.82788086 C0.39963867 66.89468018 0.60298828 65.96147949 0.8125 65 C1.20283795 63.08536971 1.58959987 61.17000664 1.97265625 59.25390625 C2.15586426 58.33883301 2.33907227 57.42375977 2.52783203 56.48095703 C3.38149397 51.99547999 3.83198934 47.55820216 4 43 C4.03996094 42.113125 4.07992187 41.22625 4.12109375 40.3125 C4.26524707 34.07150926 3.78854008 27.94790884 3.125 21.75 C3.04660889 21.00548584 2.96821777 20.26097168 2.88745117 19.49389648 C2.31121824 14.522161 1.24761859 9.84491885 0 5 C-0.125 2 -0.125 2 0 0 Z " fill="#0750D1" transform="translate(528,245)"/>
<path d="M0 0 C9.27297889 11.05728386 10.49902925 28.16580023 10 42 C9.67 42 9.34 42 9 42 C8.67 39.36 8.34 36.72 8 34 C7.67 34 7.34 34 7 34 C6.92523438 33.41734375 6.85046875 32.8346875 6.7734375 32.234375 C5.39339552 23.62940734 1.81756911 16.22635367 -3 9 C-2.01 9 -1.02 9 0 9 C1.10844919 5.67465243 0.84454356 3.37817425 0 0 Z " fill="#014DD9" transform="translate(384,429)"/>
<path d="M0 0 C0.99 0 1.98 0 3 0 C3 0.66 3 1.32 3 2 C3.87398437 2.39832031 3.87398437 2.39832031 4.765625 2.8046875 C7.06611001 4.03536654 8.77511875 5.42660213 10.75 7.125 C14.93876784 10.43850292 19.3120574 12.91966 24.0625 15.3125 C24.72282227 15.64975098 25.38314453 15.98700195 26.06347656 16.33447266 C30.62191928 18.56853857 35.05632214 19.90936957 40 21 C41.42812713 21.3525694 42.85520996 21.70939414 44.28125 22.0703125 C44.97734375 22.24433594 45.6734375 22.41835938 46.390625 22.59765625 C47.828125 22.95703125 49.265625 23.31640625 50.703125 23.67578125 C51.38890625 23.84722656 52.0746875 24.01867187 52.78125 24.1953125 C53.8434375 24.46085938 54.905625 24.72640625 56 25 C56 25.33 56 25.66 56 26 C36.79909629 26.50975851 19.70529762 17.72482691 5 6 C4.07574219 5.30390625 3.15148437 4.6078125 2.19921875 3.890625 C1.47347656 3.26671875 0.74773438 2.6428125 0 2 C0 1.34 0 0.68 0 0 Z " fill="#0527AE" transform="translate(512,493)"/>
<path d="M0 0 C5.77828916 4.80643531 11.11713519 9.95621952 16.43359375 15.265625 C17.31153091 16.14023376 18.18946808 17.01484253 19.0940094 17.91595459 C20.93662277 19.7535296 22.77790469 21.59244059 24.61791992 23.43261719 C26.50755363 25.32077832 28.39904835 27.20675777 30.29467773 29.08886719 C33.03349411 31.80947995 35.76564756 34.53661487 38.49609375 37.265625 C39.34908554 38.11143127 40.20207733 38.95723755 41.08091736 39.82867432 C41.85915359 40.60998718 42.63738983 41.39130005 43.43920898 42.19628906 C44.12869125 42.88434631 44.81817352 43.57240356 45.52854919 44.28131104 C47 46 47 46 47 48 C43.81293058 46.56438314 41.37830895 44.79733671 38.75 42.5 C38.04359375 41.8915625 37.3371875 41.283125 36.609375 40.65625 C35 39 35 39 35 37 C34.01 37 33.02 37 32 37 C31.89945313 36.39671875 31.79890625 35.7934375 31.6953125 35.171875 C30.86765785 32.58661666 30.00942435 31.87713964 27.875 30.25 C24.29877143 27.36689614 21.41438089 24.16144158 18.48046875 20.63671875 C17.07899285 18.88811115 17.07899285 18.88811115 15 18 C15 17.34 15 16.68 15 16 C14.34 16 13.68 16 13 16 C11.484375 14.4609375 11.484375 14.4609375 9.75 12.375 C7.45339927 9.65952241 5.12849225 7.08737736 2.5625 4.625 C0 2 0 2 0 0 Z " fill="#0642C3" transform="translate(592,438)"/>
<path d="M0 0 C0 0.99 0 1.98 0 3 C-0.76876465 2.93071289 -1.5375293 2.86142578 -2.32958984 2.79003906 C-21.02397118 1.2146541 -40.03657445 0.71246762 -58.5078125 4.34375 C-62 5 -62 5 -66 5 C-66 4.34 -66 3.68 -66 3 C-44.00957538 -0.83806533 -22.26475815 -2.16839384 0 0 Z " fill="#05A2FA" transform="translate(431,59)"/>
<path d="M0 0 C2.26655398 2.26655398 2.67309078 3.64674493 3.5625 6.6875 C3.81128906 7.51636719 4.06007812 8.34523438 4.31640625 9.19921875 C6.2367606 17.06718485 6.1302775 24.74191676 6.09765625 32.80859375 C6.09578833 34.14380337 6.0943662 35.47901369 6.09336853 36.81422424 C6.08957277 40.30762668 6.079768 43.80098673 6.06866455 47.29437256 C6.0583868 50.8674665 6.05385735 54.44056737 6.04882812 58.01367188 C6.03814275 65.00913186 6.02110215 72.00456389 6 79 C5.67 79 5.34 79 5 79 C5 66.79 5 54.58 5 42 C4.34 42 3.68 42 3 42 C3 41.01 3 40.02 3 39 C3.66 39 4.32 39 5 39 C4.67402832 38.46536133 4.34805664 37.93072266 4.01220703 37.37988281 C2.74916283 34.41023619 2.77308869 32.14495317 2.8046875 28.921875 C2.81113281 27.76171875 2.81757813 26.6015625 2.82421875 25.40625 C2.84097656 24.1996875 2.85773438 22.993125 2.875 21.75 C2.88402344 20.52796875 2.89304688 19.3059375 2.90234375 18.046875 C2.92590487 15.03105218 2.95880294 12.01562508 3 9 C2.34 9 1.68 9 1 9 C0.67 6.03 0.34 3.06 0 0 Z " fill="#09A8FB" transform="translate(172,88)"/>
<path d="M0 0 C0.66 0.33 1.32 0.66 2 1 C1.67048185 22.0181447 -0.65474867 42.63135289 -6 63 C-6.66 62.67 -7.32 62.34 -8 62 C-7.41575525 58.31618308 -6.74666357 54.65542027 -6.02734375 50.99609375 C-5.85009766 50.09052734 -5.67285156 49.18496094 -5.49023438 48.25195312 C-5.12086058 46.37114877 -4.74844935 44.49093846 -4.37304688 42.61132812 C-4.19708984 41.70705078 -4.02113281 40.80277344 -3.83984375 39.87109375 C-3.67863037 39.05568115 -3.51741699 38.24026855 -3.35131836 37.40014648 C-2.93233754 34.95210903 -2.93233754 34.95210903 -3.01000977 32.25805664 C-3 30 -3 30 -2 29 C-1.92769007 26.18443216 -2.00376369 23.38207789 -2.0625 20.56640625 C-2 18 -2 18 -1 16 C-0.7677354 13.28737884 -0.58063765 10.59226874 -0.4375 7.875 C-0.37272461 6.74384766 -0.37272461 6.74384766 -0.30664062 5.58984375 C-0.2005168 3.72678112 -0.09974999 1.86341476 0 0 Z " fill="#0731B3" transform="translate(626,286)"/>
<path d="M0 0 C1.32 0 2.64 0 4 0 C4 0.66 4 1.32 4 2 C4.69996094 2.22042969 5.39992188 2.44085938 6.12109375 2.66796875 C9.6838393 4.31640326 12.24995767 6.63979606 15.0625 9.3125 C15.62686768 9.84012939 16.19123535 10.36775879 16.77270508 10.91137695 C21.29127338 15.1930213 25.50704093 19.71259156 29.67211914 24.33520508 C33.4785153 28.52991836 37.53181094 32.32047867 41.84375 36 C44.17268446 38.1601711 46.07404547 40.47875044 48 43 C47.505 43.99 47.505 43.99 47 45 C43.403768 41.42867266 39.81097548 37.8539316 36.22119141 34.27612305 C35.00205617 33.06198559 33.78202107 31.84875094 32.56103516 30.63647461 C30.7960683 28.88377449 29.03447093 27.12774494 27.2734375 25.37109375 C26.73568695 24.83850449 26.1979364 24.30591522 25.64389038 23.75718689 C22.36915019 20.48292228 19.30734405 17.09518584 16.34562683 13.53462219 C14.41301935 11.33057701 12.24513259 9.54929515 9.9375 7.75 C8.71353516 6.78320312 8.71353516 6.78320312 7.46484375 5.796875 C4.9966388 3.93913075 4.9966388 3.93913075 2.19140625 2.328125 C1.46824219 1.88984375 0.74507812 1.4515625 0 1 C0 0.67 0 0.34 0 0 Z " fill="#0016A7" transform="translate(529,378)"/>
<path d="M0 0 C9.87458265 -0.06941369 19.74910756 -0.12276721 29.6238842 -0.15543652 C34.20881625 -0.17111366 38.79358178 -0.19238906 43.37841797 -0.22631836 C47.80043303 -0.25883911 52.22228761 -0.27683757 56.64441299 -0.28463173 C58.3341843 -0.29018839 60.0239465 -0.30103878 61.71364975 -0.31719017 C64.07475738 -0.33886814 66.4351961 -0.34197105 68.79638672 -0.34057617 C69.49985229 -0.351362 70.20331787 -0.36214783 70.92810059 -0.3732605 C72.87423706 -0.36076355 72.87423706 -0.36076355 76 0 C76.99 1.485 76.99 1.485 78 3 C77.25878906 2.9278125 76.51757812 2.855625 75.75390625 2.78125 C67.24708951 2.03156725 58.81420176 1.91008425 50.28527832 1.98168945 C33.49735355 2.1162009 16.7726778 1.73639968 0 1 C0 0.67 0 0.34 0 0 Z " fill="#0012A9" transform="translate(256,417)"/>
<path d="M0 0 C6.7870683 0.60881876 13.56609095 0.89007723 20.375 1.125 C21.5609375 1.16818359 22.746875 1.21136719 23.96875 1.25585938 C26.85408676 1.36056918 29.73948842 1.46274521 32.625 1.5625 C32.625 2.5525 32.625 3.5425 32.625 4.5625 C30.81257948 4.58937279 29.00004767 4.60883715 27.1875 4.625 C26.17816406 4.63660156 25.16882813 4.64820313 24.12890625 4.66015625 C21.625 4.5625 21.625 4.5625 20.625 3.5625 C19.28232587 3.47618126 17.93525678 3.45543527 16.58984375 3.46484375 C15.78095703 3.46806641 14.97207031 3.47128906 14.13867188 3.47460938 C12.8634668 3.48717773 12.8634668 3.48717773 11.5625 3.5 C10.70849609 3.50451172 9.85449219 3.50902344 8.97460938 3.51367188 C6.85804337 3.52549627 4.74151315 3.54343231 2.625 3.5625 C2.625 2.9025 2.625 2.2425 2.625 1.5625 C1.635 2.0575 1.635 2.0575 0.625 2.5625 C-1.41998425 2.47469597 -3.46244948 2.32008462 -5.5 2.125 C-6.59570312 2.02316406 -7.69140625 1.92132813 -8.8203125 1.81640625 C-10.08488281 1.69072266 -10.08488281 1.69072266 -11.375 1.5625 C-11.375 1.2325 -11.375 0.9025 -11.375 0.5625 C-7.43370563 -0.42282359 -3.99673172 -0.39204998 0 0 Z " fill="#008FF9" transform="translate(143.375,414.4375)"/>
<path d="M0 0 C3.92314627 1.13335337 6.2041265 2.08763178 9 5 C10.9717304 6.05464649 12.97762948 7.04605164 15 8 C15.5878125 8.309375 16.175625 8.61875 16.78125 8.9375 C24.91103682 13.2023062 32.85498462 16.3473653 42.1015625 16.7265625 C42.72804687 16.81679688 43.35453125 16.90703125 44 17 C44.495 17.99 44.495 17.99 45 19 C32.8447416 21.75592195 19.29177792 14.08937288 9 8 C5.82659428 5.8514685 2.77061594 3.65517361 0 1 C0 0.67 0 0.34 0 0 Z " fill="#0022B2" transform="translate(95,394)"/>
<path d="M0 0 C0.66 0 1.32 0 2 0 C1.91621094 0.7528125 1.83242187 1.505625 1.74609375 2.28125 C0.87915581 11.32374192 1.24742732 19.98070583 2 29 C1.34 29 0.68 29 0 29 C0.0721875 29.64066406 0.144375 30.28132813 0.21875 30.94140625 C0.76107544 35.99557809 1.11048267 40.91779721 1 46 C0.01 45.67 -0.98 45.34 -2 45 C-2.05030772 40.84148622 -2.08613707 36.68314448 -2.10986328 32.52441406 C-2.11977813 31.11650499 -2.13331412 29.70861567 -2.15087891 28.30078125 C-2.26806586 18.65009097 -1.66093203 9.53678334 0 0 Z " fill="#0294F7" transform="translate(68,96)"/>
<path d="M0 0 C1.92517223 5.37548091 -0.88965827 10.01431765 -3 15 C-4.23394033 17.60008855 -5.51365748 20.16295278 -6.8515625 22.7109375 C-8.05552672 25.02203733 -8.05552672 25.02203733 -9.0234375 27.625 C-10.22565263 30.5487872 -11.97132406 32.59094732 -14 35 C-14.66 35.99 -15.32 36.98 -16 38 C-16.99 37.67 -17.98 37.34 -19 37 C-18.43152344 36.175 -17.86304688 35.35 -17.27734375 34.5 C-11.35943489 25.71837926 -6.99722283 16.78594707 -3 7 C-2.00845207 4.66294066 -1.00476796 2.33142267 0 0 Z " fill="#0638BC" transform="translate(527,320)"/>
<path d="M0 0 C5.65654072 5.35078176 8.58449267 9.59562232 9.3125 17.3125 C8.83360549 22.9634552 6.59688652 26.31439757 2.75 30.375 C-0.92197742 32.54480484 -3.76205647 32.71268179 -8 33 C-6.60515876 30.21031753 -4.61853218 30.03777224 -1.8515625 28.921875 C1.63099675 27.18794254 4.26919231 24.46161539 6 21 C6.55111209 14.60709981 5.47751574 10.40664856 2 5 C1.34 4.34 0.68 3.68 0 3 C0 2.01 0 1.02 0 0 Z " fill="#0828A6" transform="translate(640,486)"/>
<path d="M0 0 C2.26000672 2.26000672 2.36030145 2.95962156 2.81640625 6.015625 C2.94039795 6.84489502 3.06438965 7.67416504 3.19213867 8.52856445 C3.31435791 9.42663818 3.43657715 10.32471191 3.5625 11.25 C3.69180908 12.17063232 3.82111816 13.09126465 3.9543457 14.03979492 C5.31042948 24.32364714 5.72847394 34.63850559 6 45 C5.01 45 4.02 45 3 45 C3.03480469 44.11183594 3.06960938 43.22367187 3.10546875 42.30859375 C3.30979541 32.66632142 2.45406347 23.44044182 1.06713867 13.89624023 C0.39083997 9.21921076 -0.19162801 4.74279334 0 0 Z " fill="#0956CF" transform="translate(622,241)"/>
<path d="M0 0 C1.75053086 3.02533176 2.23422237 5.14353785 2.16015625 8.625 C2.14919922 9.49640625 2.13824219 10.3678125 2.12695312 11.265625 C2.10568359 12.16796875 2.08441406 13.0703125 2.0625 14 C2.02794803 15.79158379 1.99783603 17.58325998 1.97265625 19.375 C1.95468994 20.16648437 1.93672363 20.95796875 1.91821289 21.7734375 C1.99993882 23.99833447 2.39994692 25.86333598 3 28 C3.39337598 30.66135848 3.6881754 33.32721773 4 36 C2.515 36.495 2.515 36.495 1 37 C-0.02361309 32.78866447 -0.11489283 28.83810136 -0.09765625 24.51171875 C-0.0962413 23.80852005 -0.09482635 23.10532135 -0.09336853 22.3808136 C-0.08780109 20.14966456 -0.07525475 17.91861836 -0.0625 15.6875 C-0.05748079 14.16862125 -0.05291862 12.64974091 -0.04882812 11.13085938 C-0.03784236 7.42053988 -0.02060034 3.71027999 0 0 Z " fill="#013DC2" transform="translate(67,310)"/>
<path d="M0 0 C9.27297889 11.05728386 10.49902925 28.16580023 10 42 C9.67 42 9.34 42 9 42 C8.77213542 40.01432292 8.54427083 38.02864583 8.31640625 36.04296875 C8.02829265 33.80603607 8.02829265 33.80603607 7 31 C6.87625 29.700625 6.7525 28.40125 6.625 27.0625 C5.76995982 18.88617825 3.82489735 11.28551875 0 4 C0 2.68 0 1.36 0 0 Z " fill="#0830AF" transform="translate(384,429)"/>
<path d="M0 0 C6.18134869 5.10448822 11.79822878 10.68294942 17.4375 16.375 C18.35982422 17.30183594 19.28214844 18.22867187 20.23242188 19.18359375 C22.49058625 21.45345846 24.74636942 23.72563538 27 26 C26.34 26.66 25.68 27.32 25 28 C24.44570313 27.36191406 23.89140625 26.72382813 23.3203125 26.06640625 C22.59585938 25.24011719 21.87140625 24.41382813 21.125 23.5625 C20.40570312 22.73878906 19.68640625 21.91507812 18.9453125 21.06640625 C17.16761255 18.94017845 17.16761255 18.94017845 15 18 C15 17.34 15 16.68 15 16 C14.34 16 13.68 16 13 16 C11.484375 14.4609375 11.484375 14.4609375 9.75 12.375 C7.45339927 9.65952241 5.12849225 7.08737736 2.5625 4.625 C0 2 0 2 0 0 Z " fill="#0750CB" transform="translate(592,438)"/>
<path d="M0 0 C4.39721823 1.03005703 8.45787434 2.77821845 12.546875 4.65234375 C11.886875 5.31234375 11.226875 5.97234375 10.546875 6.65234375 C8.05664062 5.52929688 8.05664062 5.52929688 5.56640625 4.40625 C0.27841062 2.43220134 -5.18779595 2.35838958 -10.765625 2.08984375 C-11.60158203 2.04666016 -12.43753906 2.00347656 -13.29882812 1.95898438 C-15.35009435 1.85349068 -17.4015898 1.7524706 -19.453125 1.65234375 C-14.00010844 -1.98300063 -6.34226163 -0.8988237 0 0 Z " fill="#001FB3" transform="translate(517.453125,372.34765625)"/>
<path d="M0 0 C9.24 0 18.48 0 28 0 C28 0.99 28 1.98 28 3 C14.14 2.505 14.14 2.505 0 2 C0 1.34 0 0.68 0 0 Z " fill="#04A1FA" transform="translate(402,153)"/>
<path d="M0 0 C4.86020237 3.24013491 6.32143802 8.5355047 8.6875 13.75 C9.19861328 14.83539063 9.70972656 15.92078125 10.23632812 17.0390625 C10.71908203 18.09351563 11.20183594 19.14796875 11.69921875 20.234375 C12.14096436 21.19569336 12.58270996 22.15701172 13.0378418 23.14746094 C14.08798675 26.26085694 14.17776705 28.73681273 14 32 C11.30101155 29.30101155 10.49016497 26.15194786 9.25 22.625 C6.94228495 16.23073633 4.29432161 10.26674887 1.1015625 4.2578125 C0 2 0 2 0 0 Z " fill="#0670E6" transform="translate(514,212)"/>
<path d="M0 0 C0.66 0.33 1.32 0.66 2 1 C1.85980275 4.83356092 1.71181712 8.66678433 1.5625 12.5 C1.50352539 14.11648438 1.50352539 14.11648438 1.44335938 15.765625 C1.21341951 21.56718464 0.83001269 27.25268527 0 33 C-0.99 32.67 -1.98 32.34 -3 32 C-2.505 30.515 -2.505 30.515 -2 29 C-1.95593122 27.14635711 -1.96050608 25.29124601 -2 23.4375 C-2.11082803 18.22165605 -2.11082803 18.22165605 -1 16 C-0.7677354 13.28737884 -0.58063765 10.59226874 -0.4375 7.875 C-0.39431641 7.12089844 -0.35113281 6.36679687 -0.30664062 5.58984375 C-0.2005168 3.72678112 -0.09974999 1.86341476 0 0 Z " fill="#083EC0" transform="translate(626,286)"/>
<path d="M0 0 C2.3000993 2.3000993 2.42552031 3.31376669 3 6.4375 C3.60457053 9.71405634 4.086971 11.1304565 6 14 C5.67 14.99 5.34 15.98 5 17 C5.84958898 20.3983559 6.89275334 23.67826002 8 27 C7.34 27.33 6.68 27.66 6 28 C5.34 28.99 4.68 29.98 4 31 C3.87882813 29.7934375 3.75765625 28.586875 3.6328125 27.34375 C3.46384119 25.72913529 3.29455344 24.11455368 3.125 22.5 C3.04636719 21.70851563 2.96773437 20.91703125 2.88671875 20.1015625 C2.33280616 14.90330591 1.31901577 10.05622712 0 5 C-0.125 2 -0.125 2 0 0 Z " fill="#0564E2" transform="translate(528,245)"/>
<path d="M0 0 C4.65954056 3.25748061 7.30837304 7.04130915 10.3125 11.75 C10.76689453 12.44738281 11.22128906 13.14476562 11.68945312 13.86328125 C12.80043539 15.57068558 13.90126295 17.28469011 15 19 C14.34 19.99 13.68 20.98 13 22 C12.67 20.68 12.34 19.36 12 18 C11.34 18 10.68 18 10 18 C9.67 16.35 9.34 14.7 9 13 C8.34 13 7.68 13 7 13 C6.401875 11.9275 5.80375 10.855 5.1875 9.75 C3.96441973 7.59546359 2.74978258 5.66935555 1.25 3.6875 C0 2 0 2 0 0 Z " fill="#0442CD" transform="translate(370,409)"/>
<path d="M0 0 C1.64379066 1.40407118 3.28675457 2.80912056 4.92578125 4.21875 C6.31459862 5.41140673 7.70788473 6.59887837 9.10546875 7.78125 C12.81258258 10.95281455 16.11166186 14.02853506 19 18 C18.67 18.66 18.34 19.32 18 20 C14.99196428 17.04974274 11.9949821 14.08850331 9 11.125 C8.14148438 10.28324219 7.28296875 9.44148438 6.3984375 8.57421875 C5.58632813 7.76855469 4.77421875 6.96289062 3.9375 6.1328125 C2.80634766 5.01737061 2.80634766 5.01737061 1.65234375 3.87939453 C0 2 0 2 0 0 Z " fill="#000790" transform="translate(558,403)"/>
<path d="M0 0 C1.36633087 3.69866636 0.60165824 5.83464456 -0.8125 9.4375 C-1.34810547 10.82775391 -1.34810547 10.82775391 -1.89453125 12.24609375 C-2.25933594 13.15488281 -2.62414062 14.06367188 -3 15 C-3.37511719 15.93972656 -3.75023437 16.87945312 -4.13671875 17.84765625 C-4.42160156 18.55792969 -4.70648437 19.26820313 -5 20 C-5.66 19.01 -6.32 18.02 -7 17 C-6.18415204 14.1666219 -5.29265002 11.59132985 -4.1875 8.875 C-3.90068359 8.13378906 -3.61386719 7.39257812 -3.31835938 6.62890625 C-1.18268327 1.18268327 -1.18268327 1.18268327 0 0 Z " fill="#0742C5" transform="translate(527,320)"/>
<path d="M0 0 C0.99 0 1.98 0 3 0 C3 0.66 3 1.32 3 2 C3.56203125 2.25523437 4.1240625 2.51046875 4.703125 2.7734375 C7.29386482 4.15692781 9.45107845 5.79938583 11.75 7.625 C12.54921875 8.25664062 13.3484375 8.88828125 14.171875 9.5390625 C14.77515625 10.02117187 15.3784375 10.50328125 16 11 C15.34 11.66 14.68 12.32 14 13 C13.32453125 12.45730469 12.6490625 11.91460937 11.953125 11.35546875 C11.06109375 10.64003906 10.1690625 9.92460937 9.25 9.1875 C8.36828125 8.47980469 7.4865625 7.77210938 6.578125 7.04296875 C4.97591387 5.77333781 3.34423066 4.53898095 1.671875 3.36328125 C1.12015625 2.91339844 0.5684375 2.46351563 0 2 C0 1.34 0 0.68 0 0 Z " fill="#0534BB" transform="translate(512,493)"/>
<path d="M0 0 C0.74507812 0.09990234 1.49015625 0.19980469 2.2578125 0.30273438 C4.08945442 0.54930156 5.91986251 0.80500391 7.75 1.0625 C7.75 1.3925 7.75 1.7225 7.75 2.0625 C5.16638482 2.11657567 2.58390745 2.156207 0 2.1875 C-0.72960937 2.20425781 -1.45921875 2.22101563 -2.2109375 2.23828125 C-6.0544624 2.27322239 -8.99606772 2.23749684 -12.25 0.0625 C-8.03080897 -1.18930279 -4.28911435 -0.61002421 0 0 Z " fill="#0015A4" transform="translate(150.25,412.9375)"/>
<path d="M0 0 C1.32 0.33 2.64 0.66 4 1 C2.35 5.29 0.7 9.58 -1 14 C-1.66 14 -2.32 14 -3 14 C-2.39981362 9.79869537 -1.36743501 6.01114269 0 2 C0 1.34 0 0.68 0 0 Z " fill="#06A1FA" transform="translate(298,223)"/>
<path d="M0 0 C5.23115393 -0.21544006 9.43785303 0.47629807 14.4375 2 C15.67371094 2.37125 16.90992188 2.7425 18.18359375 3.125 C19.11300781 3.41375 20.04242188 3.7025 21 4 C20.34 4.66 19.68 5.32 19 6 C15.375 5.625 15.375 5.625 12 5 C12 4.34 12 3.68 12 3 C6.06 2.01 6.06 2.01 0 1 C0 0.67 0 0.34 0 0 Z " fill="#05A2FB" transform="translate(453,64)"/>
<path d="M0 0 C0.66 0.33 1.32 0.66 2 1 C0.87970983 2.48273699 -0.24638618 3.96108886 -1.375 5.4375 C-2.00148437 6.26121094 -2.62796875 7.08492188 -3.2734375 7.93359375 C-5 10 -5 10 -7 11 C-6.68232368 5.59950264 -3.80003673 3.47662935 0 0 Z " fill="#0597F7" transform="translate(256,119)"/>
<path d="M0 0 C0.66 0.66 1.32 1.32 2 2 C0.47005208 3.23697917 -1.05989583 4.47395833 -2.58984375 5.7109375 C-4.13266437 6.9666391 -4.13266437 6.9666391 -5 9 C-6.32 8.67 -7.64 8.34 -9 8 C-6.14723863 5.06799526 -3.34920216 2.35684596 0 0 Z " fill="#039AF9" transform="translate(277,101)"/>
<path d="M0 0 C0.33 0 0.66 0 1 0 C1.33 5.61 1.66 11.22 2 17 C1.01 17 0.02 17 -1 17 C-1.02691685 14.54159395 -1.04679802 12.08348118 -1.0625 9.625 C-1.07087891 8.92632812 -1.07925781 8.22765625 -1.08789062 7.5078125 C-1.11328125 2.2265625 -1.11328125 2.2265625 0 0 Z " fill="#054FC8" transform="translate(626,269)"/>
<path d="M0 0 C5.24972347 4.10037573 9.20962911 8.52964787 13 14 C9.66863403 12.57646476 7.72335243 10.8664687 5.375 8.125 C4.78460937 7.44695312 4.19421875 6.76890625 3.5859375 6.0703125 C2.08681913 4.11333531 1.01430932 2.23951463 0 0 Z " fill="#0084F1" transform="translate(567,414)"/>
<path d="M0 0 C4.74107498 3.25102284 7.20870403 7.10632366 10 12 C6.60812721 10.58426179 4.90302459 8.95769034 2.75 6 C2.22921875 5.29875 1.7084375 4.5975 1.171875 3.875 C0 2 0 2 0 0 Z " fill="#094AC6" transform="translate(370,409)"/>
<path d="M0 0 C3.25914951 3.08297927 6.06553673 5.9161331 8 10 C7.67 10.99 7.34 11.98 7 13 C3.86385799 8.96781741 0.94594673 5.10811235 0 0 Z " fill="#0533B1" transform="translate(640,486)"/>
<path d="M0 0 C0.33 0 0.66 0 1 0 C1.96205088 6.37358711 2.10655578 12.55929529 2 19 C1.67 19 1.34 19 1 19 C0.77213542 17.01432292 0.54427083 15.02864583 0.31640625 13.04296875 C0.02829265 10.80603607 0.02829265 10.80603607 -1 8 C-0.83988879 5.29876894 -0.39559392 2.68124769 0 0 Z " fill="#1337B1" transform="translate(392,452)"/>
<path d="M0 0 C1.28132813 0.19464844 2.56265625 0.38929687 3.8828125 0.58984375 C4.87023437 0.74582031 5.85765625 0.90179688 6.875 1.0625 C4.875 3.0625 4.875 3.0625 2.125 3.109375 C1.0525 3.01140625 -0.02 2.9134375 -1.125 2.8125 C-2.1975 2.72484375 -3.27 2.6371875 -4.375 2.546875 C-7.125 2.0625 -7.125 2.0625 -9.125 0.0625 C-6.01752306 -1.49123847 -3.38273473 -0.52278628 0 0 Z " fill="#06A1F9" transform="translate(444.125,60.9375)"/>
<path d="M0 0 C1.64599285 2.96278714 2.65262237 5.61306808 3 9 C2.01 10.485 2.01 10.485 1 12 C-0.47075246 7.58774263 -1.36884358 4.51718381 0 0 Z " fill="#02A5FB" transform="translate(293,304)"/>
<path d="M0 0 C4.2742558 1.5830577 6.26531794 4.50568404 9 8 C6 8 6 8 3.375 5.6875 C1 3 1 3 0 0 Z " fill="#0572E5" transform="translate(337,378)"/>
<path d="M0 0 C2.37948772 0.17625835 3.70225849 0.69719773 5.37890625 2.40234375 C6.62115486 3.90649092 7.81376056 5.45129851 9 7 C8.01 7 7.02 7 6 7 C5.67 6.01 5.34 5.02 5 4 C4.34 4 3.68 4 3 4 C3 3.34 3 2.68 3 2 C2.01 2 1.02 2 0 2 C0 1.34 0 0.68 0 0 Z " fill="#0087EF" transform="translate(541,389)"/>
<path d="M0 0 C0.99 0 1.98 0 3 0 C4.32 2.31 5.64 4.62 7 7 C6.34 7.66 5.68 8.32 5 9 C3.35 6.03 1.7 3.06 0 0 Z " fill="#029BFA" transform="translate(307,343)"/>
<path d="M0 0 C0.66 0.99 1.32 1.98 2 3 C-2.29 2.67 -6.58 2.34 -11 2 C-11 1.67 -11 1.34 -11 1 C-3.52173913 -0.39130435 -3.52173913 -0.39130435 0 0 Z " fill="#0017AC" transform="translate(332,417)"/>
<path d="M0 0 C0.66 0 1.32 0 2 0 C2 2.64 2 5.28 2 8 C1.01 7.67 0.02 7.34 -1 7 C-0.67 4.69 -0.34 2.38 0 0 Z " fill="#019CF5" transform="translate(67,158)"/>
<path d="M0 0 C-3.3340947 2.19097652 -6.04179141 3.43454163 -10 4 C-10.33 3.34 -10.66 2.68 -11 2 C-9.54494642 1.47007308 -8.08581873 0.9513211 -6.625 0.4375 C-5.81289063 0.14746094 -5.00078125 -0.14257812 -4.1640625 -0.44140625 C-2 -1 -2 -1 0 0 Z " fill="#049DF9" transform="translate(341,70)"/>
<path d="M0 0 C0 0.66 0 1.32 0 2 C-3.465 3.485 -3.465 3.485 -7 5 C-7 4.01 -7 3.02 -7 2 C-4.35261084 0.5393715 -3.10551666 0 0 0 Z " fill="#05A3FA" transform="translate(359,164)"/>
<path d="M0 0 C0 0.99 0 1.98 0 3 C-3 5.1875 -3 5.1875 -6 7 C-5.8125 5.1875 -5.8125 5.1875 -5 3 C-2.4375 1.25 -2.4375 1.25 0 0 Z " fill="#049EFA" transform="translate(300,86)"/>
<path d="M0 0 C3.96 0 7.92 0 12 0 C12 0.33 12 0.66 12 1 C8.04 1 4.08 1 0 1 C0 0.67 0 0.34 0 0 Z " fill="#004FFF" transform="translate(201,414)"/>
<path d="M0 0 C3.3 0 6.6 0 10 0 C10 0.33 10 0.66 10 1 C6.7 1 3.4 1 0 1 C0 0.67 0 0.34 0 0 Z " fill="#005AFF" transform="translate(214,414)"/>
<path d="M0 0 C1.65 0 3.3 0 5 0 C5 0.33 5 0.66 5 1 C3.35 1 1.7 1 0 1 C0 0.67 0 0.34 0 0 Z " fill="#0062F7" transform="translate(179,414)"/>
<path d="M0 0 C1.65 0 3.3 0 5 0 C5 0.33 5 0.66 5 1 C3.35 1 1.7 1 0 1 C0 0.67 0 0.34 0 0 Z " fill="#00D4FF" transform="translate(417,156)"/>
<path d="M0 0 C3 1 3 1 3 1 Z " fill="#00E2FF" transform="translate(403,156)"/>
<path d="" fill="#007FFF" transform="translate(0,0)"/>
<path d="M0 0 C2 1 2 1 2 1 Z " fill="#0000FF" transform="translate(198,414)"/>
<path d="M0 0 C2 1 2 1 2 1 Z " fill="#0000FF" transform="translate(185,414)"/>
<path d="M0 0 C2 1 2 1 2 1 Z " fill="#00BFFF" transform="translate(428,157)"/>
<path d="M0 0 C2 1 2 1 2 1 Z " fill="#00BFFF" transform="translate(396,157)"/>
<path d="M0 0 C2 1 2 1 2 1 Z " fill="#00D4FF" transform="translate(392,157)"/>
<path d="M0 0 C2 1 2 1 2 1 Z " fill="#00D4FF" transform="translate(400,156)"/>
<path d="" fill="#00BFFF" transform="translate(0,0)"/>
<path d="M0 0 C2 1 2 1 2 1 Z " fill="#00FFFF" transform="translate(517,86)"/>
<path d="" fill="#0000FF" transform="translate(0,0)"/>
<path d="" fill="#00FFFF" transform="translate(0,0)"/>
<path d="" fill="#00FFFF" transform="translate(0,0)"/>
<path d="" fill="#00FFFF" transform="translate(0,0)"/>
<path d="" fill="#007FFF" transform="translate(0,0)"/>
<path d="" fill="#007FFF" transform="translate(0,0)"/>
<path d="" fill="#007FFF" transform="translate(0,0)"/>
<path d="" fill="#00FFFF" transform="translate(0,0)"/>
<path d="" fill="#0000FF" transform="translate(0,0)"/>
<path d="" fill="#00FFFF" transform="translate(0,0)"/>
<path d="" fill="#007FFF" transform="translate(0,0)"/>
<path d="" fill="#0000FF" transform="translate(0,0)"/>
<path d="" fill="#0000FF" transform="translate(0,0)"/>
<path d="" fill="#0055FF" transform="translate(0,0)"/>
<path d="" fill="#0000FF" transform="translate(0,0)"/>
<path d="" fill="#0000FF" transform="translate(0,0)"/>
<path d="" fill="#0000FF" transform="translate(0,0)"/>
<path d="" fill="#0000FF" transform="translate(0,0)"/>
<path d="" fill="#00FFFF" transform="translate(0,0)"/>
<path d="" fill="#00FFFF" transform="translate(0,0)"/>
<path d="" fill="#007FFF" transform="translate(0,0)"/>
<path d="" fill="#0000FF" transform="translate(0,0)"/>
<path d="" fill="#007FFF" transform="translate(0,0)"/>
<path d="" fill="#00AAFF" transform="translate(0,0)"/>
<path d="" fill="#0000FF" transform="translate(0,0)"/>
<path d="" fill="#00FFFF" transform="translate(0,0)"/>
<path d="" fill="#0000FF" transform="translate(0,0)"/>
<path d="" fill="#0000FF" transform="translate(0,0)"/>
<path d="" fill="#0099FF" transform="translate(0,0)"/>
<path d="" fill="#00FFFF" transform="translate(0,0)"/>
<path d="" fill="#00FFFF" transform="translate(0,0)"/>
<path d="" fill="#00FFFF" transform="translate(0,0)"/>
<path d="" fill="#00FFFF" transform="translate(0,0)"/>
<path d="" fill="#0000FF" transform="translate(0,0)"/>
<path d="" fill="#0000FF" transform="translate(0,0)"/>
<path d="" fill="#0000FF" transform="translate(0,0)"/>
<path d="" fill="#00FFFF" transform="translate(0,0)"/>
<path d="" fill="#00FFFF" transform="translate(0,0)"/>
<path d="" fill="#00FFFF" transform="translate(0,0)"/>
<path d="" fill="#0000FF" transform="translate(0,0)"/>
<path d="" fill="#007FFF" transform="translate(0,0)"/>
<path d="" fill="#007FFF" transform="translate(0,0)"/>
<path d="" fill="#007FFF" transform="translate(0,0)"/>
<path d="" fill="#00FFFF" transform="translate(0,0)"/>
<path d="" fill="#00FFFF" transform="translate(0,0)"/>
<path d="" fill="#00FFFF" transform="translate(0,0)"/>
<path d="" fill="#0000FF" transform="translate(0,0)"/>
<path d="" fill="#00FFFF" transform="translate(0,0)"/>
<path d="" fill="#007FFF" transform="translate(0,0)"/>
<path d="" fill="#00FFFF" transform="translate(0,0)"/>
<path d="" fill="#00FFFF" transform="translate(0,0)"/>
<path d="" fill="#00FFFF" transform="translate(0,0)"/>
<path d="" fill="#00FFFF" transform="translate(0,0)"/>
<path d="" fill="#00AAFF" transform="translate(0,0)"/>
<path d="" fill="#00FFFF" transform="translate(0,0)"/>
<path d="" fill="#00FFFF" transform="translate(0,0)"/>
<path d="" fill="#007FFF" transform="translate(0,0)"/>
<path d="" fill="#00FFFF" transform="translate(0,0)"/>
<path d="" fill="#00FFFF" transform="translate(0,0)"/>
<path d="" fill="#00AAFF" transform="translate(0,0)"/>
<path d="" fill="#00FFFF" transform="translate(0,0)"/>
<path d="" fill="#00FFFF" transform="translate(0,0)"/>
<path d="" fill="#00FFFF" transform="translate(0,0)"/>
</svg>
